<?xml version="1.0" encoding="utf-8"?>
<svg xmlns="http://www.w3.org/2000/svg" height="512pt" version="1.1" viewBox="0 0 512 512" width="512pt">
<path d="M 0.00 0.00 L 512.00 0.00 L 512.00 512.00 L 0.00 512.00 L 0.00 0.00 Z" fill="#fdfdfd" opacity="1.00" stroke="#fdfdfd" stroke-width="0.25"/>
<path d="M 244.01 25.01 C 244.92 22.69 249.89 24.44 252.33 24.38 C 249.62 25.10 246.77 24.99 244.01 25.01 Z" fill="#8c9099" opacity="1.00" stroke="#8c9099" stroke-width="0.25"/>
<path d="M 252.33 24.38 C 253.93 24.35 257.13 24.30 258.73 24.27 C 261.79 24.63 264.90 25.09 268.00 25.03 C 270.97 25.17 274.12 24.49 277.00 25.45 C 278.17 26.10 279.53 26.21 280.84 26.00 C 334.12 31.63 384.88 57.55 422.38 95.60 C 459.70 132.48 483.13 183.01 488.00 235.16 C 487.76 236.46 487.90 237.82 488.56 238.99 C 488.99 241.61 489.14 244.28 489.02 247.01 C 488.98 254.00 488.91 261.00 489.03 268.00 C 488.91 270.98 489.47 274.12 488.53 277.03 C 487.84 278.53 487.79 280.20 488.03 281.82 C 484.66 336.63 458.23 388.28 420.24 427.24 C 415.47 430.22 413.64 437.83 408.02 439.01 C 398.34 438.98 388.66 439.02 378.99 439.01 L 379.02 438.07 C 393.97 436.78 354.99 437.22 373.00 435.94 C 375.56 435.77 380.68 435.43 383.24 435.26 C 387.25 435.06 391.28 434.79 395.29 434.36 C 397.88 434.19 403.07 433.85 405.66 433.68 C 418.01 422.02 429.16 409.08 439.16 395.35 C 464.21 362.04 478.72 321.50 482.25 280.08 C 483.52 278.64 483.37 276.64 482.82 274.94 C 483.10 264.32 483.04 253.69 482.90 243.07 C 483.39 241.66 483.43 239.96 482.19 238.92 C 477.48 177.21 445.17 118.46 396.41 80.54 C 358.18 50.75 310.85 32.34 262.23 30.75 C 257.77 30.32 253.05 29.11 248.71 30.74 C 245.48 30.89 242.30 31.01 239.08 31.11 C 237.67 30.59 235.97 30.57 234.92 31.80 C 131.76 40.84 40.51 128.41 29.79 231.91 C 28.57 232.98 28.59 234.67 29.14 236.08 C 29.04 238.96 28.96 241.88 28.81 244.78 C 28.05 252.85 26.94 261.26 28.65 269.29 C 31.19 322.40 52.48 374.15 87.58 414.03 C 93.61 420.82 99.58 427.73 106.41 433.73 C 114.52 434.36 122.67 433.67 130.78 434.22 C 133.50 435.39 138.08 433.76 140.22 436.00 C 132.61 437.27 122.40 433.90 115.83 436.91 C 132.60 438.18 149.53 437.21 166.23 438.61 C 164.70 438.92 163.19 439.29 161.68 439.68 C 159.20 440.05 156.73 440.07 154.26 439.75 C 137.84 438.69 121.12 438.31 104.72 439.57 C 60.79 400.78 30.03 344.77 24.00 285.83 C 24.23 284.52 24.10 283.17 23.45 282.00 C 22.69 280.03 23.00 277.86 23.00 275.81 C 23.40 273.45 23.24 271.20 22.53 269.04 C 21.96 260.45 21.19 251.52 22.50 242.92 C 22.64 241.49 22.92 238.62 23.06 237.19 C 30.91 129.73 124.16 36.04 231.16 26.00 C 232.46 26.23 233.82 26.10 234.99 25.44 C 237.80 24.34 241.03 25.24 244.01 25.01 C 246.77 24.99 249.62 25.10 252.33 24.38 Z" fill="#303a44" opacity="1.00" stroke="#303a44" stroke-width="0.25"/>
<path d="M 258.73 24.27 C 261.18 25.00 267.03 22.42 268.00 25.03 C 264.90 25.09 261.79 24.63 258.73 24.27 Z" fill="#8c8f99" opacity="1.00" stroke="#8c8f99" stroke-width="0.25"/>
<path d="M 231.16 26.00 C 231.01 24.18 234.13 24.37 234.99 25.44 C 233.82 26.10 232.46 26.23 231.16 26.00 Z" fill="#959ca1" opacity="1.00" stroke="#959ca1" stroke-width="0.25"/>
<path d="M 277.00 25.45 C 277.85 24.37 280.99 24.17 280.84 26.00 C 279.53 26.21 278.17 26.10 277.00 25.45 Z" fill="#9fa6aa" opacity="1.00" stroke="#9fa6aa" stroke-width="0.25"/>
<path d="M 248.71 30.74 C 253.05 29.11 257.77 30.32 262.23 30.75 C 257.72 30.84 253.21 30.86 248.71 30.74 Z" fill="#62696e" opacity="1.00" stroke="#62696e" stroke-width="0.25"/>
<path d="M 234.92 31.80 C 235.97 30.57 237.67 30.59 239.08 31.11 C 238.13 32.53 236.30 32.37 234.92 31.80 Z" fill="#878c92" opacity="1.00" stroke="#878c92" stroke-width="0.25"/>
<path d="M 239.08 31.11 C 242.30 31.01 245.48 30.89 248.71 30.74 C 253.21 30.86 257.72 30.84 262.23 30.75 C 310.85 32.34 358.18 50.75 396.41 80.54 C 445.17 118.46 477.48 177.21 482.19 238.92 C 481.62 240.30 481.46 242.14 482.90 243.07 C 483.04 253.69 483.10 264.32 482.82 274.94 C 481.39 276.31 481.62 278.38 482.25 280.08 C 478.72 321.50 464.21 362.04 439.16 395.35 C 437.34 389.54 441.94 383.26 439.83 377.13 C 435.94 358.14 431.61 334.90 411.94 326.15 C 407.43 324.27 403.03 321.90 398.22 320.87 C 400.30 326.29 396.48 329.07 396.72 323.82 C 395.81 310.44 381.10 305.25 372.06 298.00 C 365.15 290.98 356.99 283.31 356.59 272.73 C 363.23 249.48 372.26 225.64 368.07 200.95 C 363.42 173.12 347.45 149.20 338.27 122.87 C 337.68 120.86 337.07 118.85 336.24 116.93 C 330.83 101.15 324.77 85.05 313.79 72.22 C 307.73 65.38 298.03 61.21 288.97 63.97 C 282.29 65.96 277.26 70.99 271.78 75.01 C 270.42 75.01 269.46 74.08 268.69 73.07 C 273.17 69.68 278.61 67.37 282.27 62.99 C 273.77 52.09 258.93 49.05 245.80 49.06 C 242.11 49.00 238.45 48.96 234.77 49.14 C 226.57 49.60 218.60 51.91 211.08 55.10 C 197.39 60.13 184.95 68.72 175.15 79.49 C 150.69 103.97 143.70 141.25 149.44 174.46 C 150.82 185.20 155.34 196.45 151.12 207.11 C 145.33 223.61 131.19 237.40 132.07 255.91 C 132.59 266.30 143.12 276.63 136.92 286.96 C 128.29 305.20 104.47 302.04 92.45 316.05 C 83.98 322.28 80.61 335.84 89.36 343.24 C 87.51 344.15 85.87 342.47 84.15 341.97 C 84.31 360.30 83.69 378.66 84.00 397.00 C 84.00 400.14 87.46 401.62 89.83 402.93 C 91.89 403.99 93.97 405.02 96.04 406.06 C 92.79 409.72 90.78 410.19 87.58 414.03 C 52.48 374.15 31.19 322.40 28.65 269.29 C 29.10 261.12 29.09 252.94 28.81 244.78 C 28.96 241.88 29.04 238.96 29.14 236.08 C 30.55 235.12 30.36 233.29 29.79 231.91 C 40.51 128.41 131.76 40.84 234.92 31.80 C 236.30 32.37 238.13 32.53 239.08 31.11 Z" fill="#f9f9f7" opacity="1.00" stroke="#f9f9f7" stroke-width="0.25"/>
<path d="M 238.72 40.38 C 262.53 36.70 288.70 40.01 311.06 46.94 C 307.58 46.36 305.55 47.85 310.10 48.40 C 306.70 50.60 300.07 48.96 297.81 53.74 C 311.00 54.93 295.13 55.19 292.08 54.99 C 291.20 58.21 297.43 55.13 299.28 56.70 C 293.77 55.60 286.80 60.51 282.31 55.67 C 273.06 45.56 259.07 43.62 246.25 41.71 C 243.72 41.27 241.21 40.95 238.72 40.38 Z" fill="#fadd7d" opacity="1.00" stroke="#fadd7d" stroke-width="0.25"/>
<path d="M 220.06 42.94 C 224.49 41.11 232.74 39.80 238.72 40.38 C 241.21 40.95 243.72 41.27 246.25 41.71 C 238.21 41.17 230.14 43.45 222.30 43.70 C 221.74 43.51 220.62 43.13 220.06 42.94 Z" fill="#fae9ab" opacity="1.00" stroke="#fae9ab" stroke-width="0.25"/>
<path d="M 175.90 55.99 C 189.12 49.38 205.02 44.69 220.06 42.94 C 220.62 43.13 221.74 43.51 222.30 43.70 C 209.31 47.75 196.56 53.24 185.18 60.92 C 185.92 56.49 178.61 63.90 180.47 59.38 C 182.40 55.56 176.88 59.43 175.90 55.99 Z" fill="#fadf83" opacity="1.00" stroke="#fadf83" stroke-width="0.25"/>
<path d="M 310.10 48.40 C 305.55 47.85 307.58 46.36 311.06 46.94 C 323.47 50.54 336.30 54.96 347.68 61.17 C 348.03 63.07 348.58 64.94 349.92 66.39 C 346.69 66.39 344.51 63.36 341.52 62.45 C 336.10 59.16 336.14 64.95 334.81 67.83 C 332.83 69.56 330.13 70.24 328.27 72.15 C 328.58 77.29 333.36 80.99 333.02 86.20 C 330.03 82.69 328.42 78.19 325.23 74.85 C 325.14 75.38 324.96 76.46 324.87 76.99 C 318.25 68.26 310.68 59.08 299.28 56.70 C 297.43 55.13 291.20 58.21 292.08 54.99 C 295.13 55.19 311.00 54.93 297.81 53.74 C 300.07 48.96 306.70 50.60 310.10 48.40 Z" fill="#f9d86f" opacity="1.00" stroke="#f9d86f" stroke-width="0.25"/>
<path d="M 211.08 55.10 C 218.60 51.91 226.57 49.60 234.77 49.14 C 239.12 48.92 243.27 49.33 240.94 53.74 C 241.63 56.18 242.00 58.81 239.87 60.89 C 236.99 61.86 232.05 59.63 229.85 61.84 C 238.73 62.06 247.68 64.24 255.38 68.75 C 241.40 68.71 226.83 68.90 213.81 74.64 L 213.07 74.86 C 207.66 72.94 213.91 67.35 210.83 63.54 C 208.06 60.39 214.41 57.18 211.08 55.10 Z" fill="#c9b480" opacity="1.00" stroke="#c9b480" stroke-width="0.25"/>
<path d="M 234.77 49.14 C 238.45 48.96 242.11 49.00 245.80 49.06 C 253.49 48.62 256.77 55.31 257.10 61.93 C 251.35 61.77 245.62 61.10 239.87 60.89 C 242.00 58.81 241.63 56.18 240.94 53.74 C 243.27 49.33 239.12 48.92 234.77 49.14 Z" fill="#b39e70" opacity="1.00" stroke="#b39e70" stroke-width="0.25"/>
<path d="M 245.80 49.06 C 258.93 49.05 273.77 52.09 282.27 62.99 C 278.61 67.37 273.17 69.68 268.69 73.07 C 269.46 74.08 270.42 75.01 271.78 75.01 C 283.25 79.40 289.05 92.58 294.84 102.72 C 294.61 103.01 294.16 103.59 293.93 103.88 C 292.84 111.17 297.13 118.57 295.93 126.20 C 292.11 109.66 289.43 91.05 275.32 79.72 C 271.89 77.11 268.05 73.33 263.52 73.71 L 262.70 73.81 C 247.83 73.11 233.64 78.18 218.94 79.01 C 220.27 76.44 222.94 75.47 225.24 74.01 C 220.58 73.78 216.53 76.52 212.02 77.20 C 212.60 76.33 213.20 75.48 213.81 74.64 C 226.83 68.90 241.40 68.71 255.38 68.75 C 247.68 64.24 238.73 62.06 229.85 61.84 C 232.05 59.63 236.99 61.86 239.87 60.89 C 245.62 61.10 251.35 61.77 257.10 61.93 C 256.77 55.31 253.49 48.62 245.80 49.06 Z" fill="#80735e" opacity="1.00" stroke="#80735e" stroke-width="0.25"/>
<path d="M 175.15 79.49 C 184.95 68.72 197.39 60.13 211.08 55.10 C 214.41 57.18 208.06 60.39 210.83 63.54 C 213.91 67.35 207.66 72.94 213.07 74.86 C 206.93 76.93 200.92 79.56 195.39 82.93 C 186.69 87.13 177.91 92.34 173.16 101.14 C 171.08 104.09 170.50 101.74 170.36 99.21 C 176.37 97.14 170.44 89.46 177.37 87.49 C 170.51 89.31 175.85 82.95 175.15 79.49 Z" fill="#d8c381" opacity="1.00" stroke="#d8c381" stroke-width="0.25"/>
<path d="M 81.97 125.89 C 107.42 96.12 139.11 70.16 175.90 55.99 C 176.88 59.43 182.40 55.56 180.47 59.38 C 178.61 63.90 185.92 56.49 185.18 60.92 C 160.84 78.59 145.82 108.79 140.96 137.04 C 140.18 136.64 139.39 136.24 138.61 135.85 C 131.41 129.51 118.01 125.13 111.89 135.15 C 112.83 130.87 116.04 127.68 118.14 123.97 C 113.24 125.67 108.77 136.27 104.81 128.89 C 101.36 125.96 100.24 129.50 102.65 132.27 C 103.24 134.18 103.79 136.11 104.07 138.09 C 98.75 134.57 94.31 126.33 87.09 127.64 C 85.30 127.35 83.68 126.45 81.97 125.89 Z" fill="#f9d569" opacity="1.00" stroke="#f9d569" stroke-width="0.25"/>
<path d="M 347.68 61.17 C 408.95 88.66 455.07 145.77 470.67 210.76 C 468.81 216.83 467.03 222.93 465.67 229.14 C 460.34 218.84 459.29 205.82 450.20 197.88 C 448.48 201.46 446.34 197.05 443.85 196.99 C 443.48 196.91 442.72 196.75 442.35 196.67 C 440.54 196.10 438.72 195.57 436.89 195.13 L 436.36 194.71 C 435.33 193.17 433.34 194.44 433.69 196.06 C 432.89 194.24 430.87 194.54 429.24 194.30 C 425.59 192.15 420.63 191.05 417.12 194.00 C 411.63 195.27 411.93 188.78 409.09 185.83 C 400.37 141.81 380.89 99.22 349.92 66.39 C 348.58 64.94 348.03 63.07 347.68 61.17 Z" fill="#f7de9d" opacity="1.00" stroke="#f7de9d" stroke-width="0.25"/>
<path d="M 334.81 67.83 C 336.14 64.95 336.10 59.16 341.52 62.45 C 344.51 63.36 346.69 66.39 349.92 66.39 C 380.89 99.22 400.37 141.81 409.09 185.83 C 409.05 186.66 408.99 188.33 408.95 189.17 C 393.00 164.04 369.73 144.52 346.95 125.97 C 340.29 109.71 334.08 92.19 324.87 76.99 C 324.96 76.46 325.14 75.38 325.23 74.85 C 328.42 78.19 330.03 82.69 333.02 86.20 C 333.36 80.99 328.58 77.29 328.27 72.15 C 330.13 70.24 332.83 69.56 334.81 67.83 Z" fill="#f9d360" opacity="1.00" stroke="#f9d360" stroke-width="0.25"/>
<path d="M 288.97 63.97 C 298.03 61.21 307.73 65.38 313.79 72.22 C 324.77 85.05 330.83 101.15 336.24 116.93 C 330.15 108.30 326.41 96.14 315.13 92.89 C 308.85 91.70 302.24 90.42 295.92 92.14 C 299.91 103.70 309.41 112.78 314.68 123.96 C 315.92 126.03 317.14 128.11 318.38 130.19 C 311.95 131.56 310.96 121.72 307.13 117.92 C 307.00 118.48 306.74 119.61 306.61 120.17 C 302.69 114.35 299.18 108.24 294.84 102.72 C 289.05 92.58 283.25 79.40 271.78 75.01 C 277.26 70.99 282.29 65.96 288.97 63.97 Z" fill="#8c7b61" opacity="1.00" stroke="#8c7b61" stroke-width="0.25"/>
<path d="M 263.52 73.71 C 268.05 73.33 271.89 77.11 275.32 79.72 C 289.43 91.05 292.11 109.66 295.93 126.20 C 296.36 134.98 294.29 123.64 291.64 125.00 C 284.51 106.71 270.03 92.23 263.52 73.71 Z" fill="#8d7d64" opacity="1.00" stroke="#8d7d64" stroke-width="0.25"/>
<path d="M 212.02 77.20 C 216.53 76.52 220.58 73.78 225.24 74.01 C 222.94 75.47 220.27 76.44 218.94 79.01 C 216.13 79.72 213.38 80.66 210.70 81.78 C 208.88 82.46 207.07 83.14 205.25 83.83 C 202.76 79.67 198.57 85.16 195.39 82.93 C 200.92 79.56 206.93 76.93 213.07 74.86 L 213.81 74.64 C 213.20 75.48 212.60 76.33 212.02 77.20 Z" fill="#5c5b55" opacity="1.00" stroke="#5c5b55" stroke-width="0.25"/>
<path d="M 218.94 79.01 C 233.64 78.18 247.83 73.11 262.70 73.81 C 261.32 88.20 266.61 102.82 264.82 117.24 C 253.51 114.98 239.48 115.28 231.08 124.26 C 228.85 128.58 231.89 132.09 235.85 130.77 C 237.81 131.74 235.82 131.96 234.76 132.40 C 231.78 141.43 225.00 148.49 221.07 157.05 C 217.83 166.66 218.28 176.84 217.52 186.80 C 213.95 188.19 207.19 185.79 207.51 191.29 C 203.74 187.63 208.58 183.26 209.43 179.38 C 212.40 168.46 215.29 153.91 205.06 145.84 C 202.98 141.21 198.01 138.94 193.36 137.65 C 192.16 137.09 188.76 137.19 191.13 135.56 C 193.06 136.17 194.99 136.86 197.01 137.08 C 197.79 126.80 183.35 126.08 176.06 128.00 C 175.64 119.97 175.80 111.93 177.09 104.00 C 178.24 102.57 179.37 101.13 180.60 99.76 C 183.20 101.97 185.73 99.17 188.19 98.18 C 197.16 93.30 206.51 88.86 215.09 83.41 C 213.63 82.85 212.16 82.32 210.70 81.78 C 213.38 80.66 216.13 79.72 218.94 79.01 Z" fill="#edb894" opacity="1.00" stroke="#edb894" stroke-width="0.25"/>
<path d="M 262.70 73.81 L 263.52 73.71 C 270.03 92.23 284.51 106.71 291.64 125.00 C 294.38 131.70 294.34 139.12 295.18 146.21 C 288.93 147.54 282.33 146.68 275.99 146.48 C 276.31 146.12 276.96 145.40 277.28 145.04 C 279.07 143.31 280.06 139.75 277.02 138.75 C 274.61 139.71 272.83 141.93 270.15 142.25 C 270.49 140.46 273.79 135.44 270.14 138.07 C 269.17 137.23 267.70 136.69 266.70 137.81 L 266.21 138.12 C 261.49 134.51 249.14 133.37 244.63 139.74 C 241.40 142.92 234.96 146.27 235.48 151.20 C 240.66 153.47 246.61 153.87 252.18 153.63 C 255.45 153.44 258.70 152.84 261.62 151.29 C 264.43 152.08 266.98 149.78 269.80 149.70 C 266.77 157.81 261.77 166.14 251.98 166.87 C 242.14 166.53 240.81 177.85 240.82 185.09 C 238.53 182.72 239.09 186.51 238.50 188.08 C 236.26 186.29 235.53 191.07 234.12 192.34 C 231.80 192.00 229.10 190.07 226.95 191.83 C 221.64 196.95 211.93 197.97 207.51 191.29 C 207.19 185.79 213.95 188.19 217.52 186.80 C 218.28 176.84 217.83 166.66 221.07 157.05 C 225.00 148.49 231.78 141.43 234.76 132.40 C 235.82 131.96 237.81 131.74 235.85 130.77 C 242.68 126.73 249.75 121.99 258.02 121.97 C 266.10 121.30 272.94 126.15 280.13 128.86 C 281.44 129.42 282.67 128.53 282.93 127.22 C 277.31 123.17 271.16 119.99 264.82 117.24 C 266.61 102.82 261.32 88.20 262.70 73.81 Z" fill="#e9ac83" opacity="1.00" stroke="#e9ac83" stroke-width="0.25"/>
<path d="M 149.44 174.46 C 143.70 141.25 150.69 103.97 175.15 79.49 C 175.85 82.95 170.51 89.31 177.37 87.49 C 170.44 89.46 176.37 97.14 170.36 99.21 C 170.50 101.74 171.08 104.09 173.16 101.14 C 172.85 102.40 172.55 103.66 172.31 104.94 C 170.70 114.83 169.73 125.29 172.19 135.12 C 172.58 138.12 172.33 141.13 172.26 144.16 C 171.84 149.31 164.11 145.64 166.48 149.94 C 167.53 154.25 172.38 154.67 176.00 155.20 C 174.18 165.09 170.77 175.06 171.45 185.18 C 172.82 190.89 175.01 196.37 177.39 201.73 C 176.97 210.00 172.83 217.18 166.93 222.75 C 152.41 234.35 145.41 253.08 150.30 271.26 C 150.07 276.43 150.06 281.63 149.94 286.81 C 140.68 308.52 115.42 321.61 92.45 316.05 C 104.47 302.04 128.29 305.20 136.92 286.96 C 143.12 276.63 132.59 266.30 132.07 255.91 C 131.19 237.40 145.33 223.61 151.12 207.11 C 155.34 196.45 150.82 185.20 149.44 174.46 Z" fill="#e2ce88" opacity="1.00" stroke="#e2ce88" stroke-width="0.25"/>
<path d="M 195.39 82.93 C 198.57 85.16 202.76 79.67 205.25 83.83 C 196.51 88.22 187.03 92.03 180.60 99.76 C 179.37 101.13 178.24 102.57 177.09 104.00 C 173.74 105.98 173.59 109.75 174.64 113.37 C 173.61 110.63 172.93 107.78 172.31 104.94 C 172.55 103.66 172.85 102.40 173.16 101.14 C 177.91 92.34 186.69 87.13 195.39 82.93 Z" fill="#3a3f44" opacity="1.00" stroke="#3a3f44" stroke-width="0.25"/>
<path d="M 205.25 83.83 C 207.07 83.14 208.88 82.46 210.70 81.78 C 212.16 82.32 213.63 82.85 215.09 83.41 C 206.51 88.86 197.16 93.30 188.19 98.18 C 185.73 99.17 183.20 101.97 180.60 99.76 C 187.03 92.03 196.51 88.22 205.25 83.83 Z" fill="#f2c7a8" opacity="1.00" stroke="#f2c7a8" stroke-width="0.25"/>
<path d="M 295.92 92.14 C 302.24 90.42 308.85 91.70 315.13 92.89 C 326.41 96.14 330.15 108.30 336.24 116.93 C 337.07 118.85 337.68 120.86 338.27 122.87 C 336.28 120.16 333.40 118.44 330.69 116.57 C 327.41 120.78 317.87 118.27 318.11 122.69 C 316.68 122.26 315.52 122.77 314.68 123.96 C 309.41 112.78 299.91 103.70 295.92 92.14 Z" fill="#bca77b" opacity="1.00" stroke="#bca77b" stroke-width="0.25"/>
<path d="M 293.93 103.88 C 294.16 103.59 294.61 103.01 294.84 102.72 C 299.18 108.24 302.69 114.35 306.61 120.17 C 317.64 140.98 330.32 161.16 338.17 183.48 C 334.39 204.26 330.70 225.45 321.80 244.84 C 316.94 258.73 308.39 271.41 305.11 285.79 C 303.56 292.81 305.03 300.47 309.73 306.02 C 321.81 321.52 339.35 333.21 346.94 352.01 C 352.11 364.37 352.58 378.56 359.87 390.11 C 363.98 397.55 370.47 403.40 374.13 411.10 C 376.40 413.74 377.12 422.21 380.51 420.90 C 385.17 429.25 374.38 429.79 371.81 424.21 C 369.24 422.71 368.55 417.01 365.21 417.83 C 364.61 411.08 358.92 406.23 357.36 399.72 C 353.78 391.88 354.10 382.66 349.77 375.19 C 342.35 371.99 332.27 376.06 327.20 367.80 C 319.73 356.43 319.95 342.09 313.91 330.03 C 307.16 314.68 295.04 300.63 294.80 283.20 C 292.35 288.76 295.60 299.58 293.30 307.30 C 289.97 271.22 299.60 235.97 302.20 200.23 C 302.61 197.08 303.02 193.94 302.87 190.76 C 302.88 189.28 302.84 187.79 302.76 186.31 C 302.62 181.80 303.63 177.10 302.30 172.70 C 302.07 168.49 301.98 164.29 301.86 160.08 C 301.69 158.54 301.35 155.46 301.18 153.93 C 301.29 148.17 300.46 142.49 299.84 136.80 C 299.88 125.56 296.93 114.61 293.93 103.88 Z" fill="#e1ce8b" opacity="1.00" stroke="#e1ce8b" stroke-width="0.25"/>
<path d="M 174.64 113.37 C 173.59 109.75 173.74 105.98 177.09 104.00 C 175.80 111.93 175.64 119.97 176.06 128.00 C 183.35 126.08 197.79 126.80 197.01 137.08 C 194.99 136.86 193.06 136.17 191.13 135.56 C 185.00 132.56 178.44 132.89 172.19 135.12 C 169.73 125.29 170.70 114.83 172.31 104.94 C 172.93 107.78 173.61 110.63 174.64 113.37 Z" fill="#2b2f37" opacity="1.00" stroke="#2b2f37" stroke-width="0.25"/>
<path d="M 295.93 126.20 C 297.13 118.57 292.84 111.17 293.93 103.88 C 296.93 114.61 299.88 125.56 299.84 136.80 C 299.21 141.35 298.90 146.02 297.37 150.39 C 298.34 148.43 296.80 140.83 295.90 145.99 L 295.18 146.21 C 294.34 139.12 294.38 131.70 291.64 125.00 C 294.29 123.64 296.36 134.98 295.93 126.20 Z" fill="#655f52" opacity="1.00" stroke="#655f52" stroke-width="0.25"/>
<path d="M 231.08 124.26 C 239.48 115.28 253.51 114.98 264.82 117.24 C 271.16 119.99 277.31 123.17 282.93 127.22 C 282.67 128.53 281.44 129.42 280.13 128.86 C 272.94 126.15 266.10 121.30 258.02 121.97 C 249.75 121.99 242.68 126.73 235.85 130.77 C 231.89 132.09 228.85 128.58 231.08 124.26 Z" fill="#212d36" opacity="1.00" stroke="#212d36" stroke-width="0.25"/>
<path d="M 318.11 122.69 C 317.87 118.27 327.41 120.78 330.69 116.57 C 333.40 118.44 336.28 120.16 338.27 122.87 C 347.45 149.20 363.42 173.12 368.07 200.95 C 372.26 225.64 363.23 249.48 356.59 272.73 C 353.70 277.94 355.04 284.32 358.01 289.20 C 357.67 290.19 357.29 291.16 356.86 292.12 C 349.03 285.89 343.64 276.57 342.40 266.60 C 339.48 251.15 351.03 238.19 350.93 222.98 C 352.52 189.10 333.71 159.04 318.38 130.19 C 317.14 128.11 315.92 126.03 314.68 123.96 C 315.52 122.77 316.68 122.26 318.11 122.69 Z" fill="#cab679" opacity="1.00" stroke="#cab679" stroke-width="0.25"/>
<path d="M 307.13 117.92 C 310.96 121.72 311.95 131.56 318.38 130.19 C 333.71 159.04 352.52 189.10 350.93 222.98 C 351.03 238.19 339.48 251.15 342.40 266.60 C 343.64 276.57 349.03 285.89 356.86 292.12 C 357.29 291.16 357.67 290.19 358.01 289.20 C 361.35 294.10 368.01 293.70 372.06 298.00 C 381.10 305.25 395.81 310.44 396.72 323.82 C 396.56 324.18 396.25 324.90 396.10 325.26 C 388.80 312.62 374.75 306.64 361.98 301.03 C 344.20 293.62 336.45 272.89 336.78 254.84 C 345.89 232.18 350.48 206.05 338.17 183.48 C 330.32 161.16 317.64 140.98 306.61 120.17 C 306.74 119.61 307.00 118.48 307.13 117.92 Z" fill="#98886d" opacity="1.00" stroke="#98886d" stroke-width="0.25"/>
<path d="M 104.81 128.89 C 108.77 136.27 113.24 125.67 118.14 123.97 C 116.04 127.68 112.83 130.87 111.89 135.15 C 118.01 125.13 131.41 129.51 138.61 135.85 C 136.71 136.97 134.71 137.91 132.71 138.85 C 132.51 141.36 141.65 136.57 139.81 140.68 C 134.56 140.74 131.27 144.42 127.88 147.86 C 128.37 147.84 129.35 147.81 129.84 147.79 L 130.97 147.95 C 127.42 153.40 120.11 156.20 118.90 163.15 C 123.14 158.44 127.90 154.21 132.97 150.39 C 135.90 151.24 137.81 147.45 140.11 146.09 C 140.08 146.87 140.03 148.41 140.00 149.18 C 139.58 151.52 139.74 153.77 140.48 155.95 C 141.06 158.65 141.23 161.39 140.99 164.17 C 140.76 165.47 140.90 166.83 141.56 168.00 C 142.23 169.52 142.03 171.25 141.98 172.87 C 136.45 173.48 129.03 175.96 126.95 181.05 C 132.58 179.92 137.46 176.13 142.84 173.99 C 145.08 185.04 148.74 197.30 143.73 208.07 C 141.45 202.20 134.80 199.57 128.90 202.13 C 130.14 206.51 137.49 211.17 132.59 215.57 C 130.61 216.19 129.29 220.70 127.27 218.67 C 119.00 213.68 124.82 228.55 119.20 227.92 C 116.91 224.98 116.37 219.55 112.05 218.80 C 111.96 221.73 111.96 224.77 112.25 227.72 C 112.18 250.20 111.20 272.80 112.68 295.22 L 112.85 296.09 C 112.01 296.45 111.17 296.79 110.32 297.11 C 111.72 272.49 110.79 247.78 110.92 223.13 C 109.02 238.57 110.31 258.50 109.62 276.04 C 109.24 276.01 108.47 275.95 108.08 275.91 C 108.22 257.32 106.92 238.79 107.68 220.22 C 106.32 217.59 99.52 218.76 103.99 223.99 C 103.26 243.66 105.44 265.64 102.98 283.89 C 102.93 269.18 103.21 254.46 102.80 239.76 C 101.75 232.63 105.47 223.33 101.74 217.12 C 94.12 215.35 94.36 224.63 92.14 229.14 C 92.04 228.38 91.84 226.87 91.74 226.11 C 92.38 224.72 92.53 222.88 91.13 221.91 C 89.41 215.32 89.45 208.25 93.95 202.85 C 89.22 203.54 84.76 205.42 80.64 207.79 C 73.15 209.97 67.05 214.43 62.11 220.36 C 60.75 219.39 59.28 218.47 58.40 217.00 C 58.50 215.37 58.73 213.76 58.92 212.15 C 59.57 203.68 65.98 197.48 73.23 193.85 C 75.78 191.98 71.21 191.09 69.97 192.51 C 62.25 194.06 53.62 197.10 52.17 206.12 L 51.91 207.02 C 51.28 206.29 50.65 205.56 50.02 204.83 C 46.81 192.86 56.85 185.67 64.80 179.25 C 68.84 178.42 65.07 172.92 68.75 170.78 C 71.59 166.57 66.20 171.10 65.36 172.97 C 65.00 171.63 63.69 171.30 62.59 170.81 C 63.58 167.81 64.96 164.95 66.02 161.97 C 63.27 162.40 60.57 163.17 57.78 163.40 C 60.47 158.96 61.30 150.35 66.63 149.27 C 71.38 153.76 77.89 152.97 83.89 153.15 C 89.10 155.81 92.14 161.03 95.86 165.29 C 96.92 157.14 94.15 148.97 90.00 142.07 C 83.34 141.25 83.33 132.31 80.77 126.98 C 81.07 126.70 81.67 126.16 81.97 125.89 C 83.68 126.45 85.30 127.35 87.09 127.64 C 94.31 126.33 98.75 134.57 104.07 138.09 C 103.79 136.11 103.24 134.18 102.65 132.27 C 103.36 131.14 104.08 130.01 104.81 128.89 Z" fill="#0e2227" opacity="1.00" stroke="#0e2227" stroke-width="0.25"/>
<path d="M 346.95 125.97 C 369.73 144.52 393.00 164.04 408.95 189.17 C 410.13 197.97 410.42 206.91 410.37 215.79 C 405.28 214.33 399.92 213.78 394.64 214.06 C 397.46 215.48 400.90 215.65 403.21 218.03 C 398.97 217.64 395.12 215.71 391.08 214.54 C 388.60 212.98 386.54 213.02 384.90 214.65 C 381.53 215.09 378.18 215.77 374.98 216.94 C 376.57 191.09 364.57 167.11 353.41 144.65 C 351.08 138.52 347.91 132.51 346.95 125.97 Z" fill="#eebd33" opacity="1.00" stroke="#eebd33" stroke-width="0.25"/>
<path d="M 66.63 149.27 C 69.25 140.98 75.87 134.20 80.77 126.98 C 83.33 132.31 83.34 141.25 90.00 142.07 C 94.15 148.97 96.92 157.14 95.86 165.29 C 92.14 161.03 89.10 155.81 83.89 153.15 C 77.89 152.97 71.38 153.76 66.63 149.27 Z" fill="#f2d992" opacity="1.00" stroke="#f2d992" stroke-width="0.25"/>
<path d="M 102.65 132.27 C 100.24 129.50 101.36 125.96 104.81 128.89 C 104.08 130.01 103.36 131.14 102.65 132.27 Z" fill="#4e5c3e" opacity="1.00" stroke="#4e5c3e" stroke-width="0.25"/>
<path d="M 172.19 135.12 C 178.44 132.89 185.00 132.56 191.13 135.56 C 188.76 137.19 192.16 137.09 193.36 137.65 C 198.01 138.94 202.98 141.21 205.06 145.84 C 206.07 148.47 207.54 150.93 208.25 153.68 C 206.07 152.85 204.59 154.78 203.01 155.94 C 205.30 150.54 198.19 147.02 194.03 145.98 C 188.85 144.19 183.45 145.13 178.51 147.05 C 177.10 146.09 175.62 145.04 173.85 145.68 L 173.81 144.72 C 174.32 142.62 173.43 143.05 172.26 144.16 C 172.33 141.13 172.58 138.12 172.19 135.12 Z" fill="#e09e72" opacity="1.00" stroke="#e09e72" stroke-width="0.25"/>
<path d="M 244.63 139.74 C 249.14 133.37 261.49 134.51 266.21 138.12 C 264.33 139.73 264.04 138.93 264.74 136.85 C 258.85 139.95 250.99 135.93 244.63 139.74 Z" fill="#b37a60" opacity="1.00" stroke="#b37a60" stroke-width="0.25"/>
<path d="M 138.61 135.85 C 139.39 136.24 140.18 136.64 140.96 137.04 C 140.19 139.84 141.37 143.57 140.11 146.09 C 137.81 147.45 135.90 151.24 132.97 150.39 C 137.38 146.67 133.67 145.42 129.84 147.79 C 129.35 147.81 128.37 147.84 127.88 147.86 C 131.27 144.42 134.56 140.74 139.81 140.68 C 141.65 136.57 132.51 141.36 132.71 138.85 C 134.71 137.91 136.71 136.97 138.61 135.85 Z" fill="#c6b879" opacity="1.00" stroke="#c6b879" stroke-width="0.25"/>
<path d="M 244.63 139.74 C 250.99 135.93 258.85 139.95 264.74 136.85 C 264.04 138.93 264.33 139.73 266.21 138.12 L 266.70 137.81 C 266.41 140.66 269.24 139.76 270.14 138.07 C 273.79 135.44 270.49 140.46 270.15 142.25 C 272.83 141.93 274.61 139.71 277.02 138.75 C 275.39 141.22 272.47 144.55 277.28 145.04 C 276.96 145.40 276.31 146.12 275.99 146.48 C 271.05 149.26 262.54 144.15 261.62 151.29 C 258.70 152.84 255.45 153.44 252.18 153.63 C 247.64 152.19 246.61 147.19 246.77 142.94 C 242.21 144.21 239.13 148.37 235.48 151.20 C 234.96 146.27 241.40 142.92 244.63 139.74 Z" fill="#18191b" opacity="1.00" stroke="#18191b" stroke-width="0.25"/>
<path d="M 266.70 137.81 C 267.70 136.69 269.17 137.23 270.14 138.07 C 269.24 139.76 266.41 140.66 266.70 137.81 Z" fill="#8e7357" opacity="1.00" stroke="#8e7357" stroke-width="0.25"/>
<path d="M 297.37 150.39 C 298.90 146.02 299.21 141.35 299.84 136.80 C 300.46 142.49 301.29 148.17 301.18 153.93 C 301.35 155.46 301.69 158.54 301.86 160.08 C 301.98 164.29 302.07 168.49 302.30 172.70 C 302.43 177.18 301.22 181.95 302.76 186.31 C 302.84 187.79 302.88 189.28 302.87 190.76 C 302.33 193.88 301.98 197.06 302.20 200.23 C 299.60 235.97 289.97 271.22 293.30 307.30 C 294.25 326.90 297.47 346.33 298.14 365.96 C 296.78 368.88 297.04 371.23 298.93 373.01 C 298.87 376.06 298.87 379.19 298.81 382.26 C 298.30 379.86 298.01 376.58 296.00 380.08 C 297.82 376.54 294.79 369.49 294.78 376.21 C 292.84 355.03 291.10 333.83 288.77 312.69 C 288.79 312.23 288.82 311.31 288.83 310.85 C 288.56 305.46 287.93 300.09 287.84 294.70 C 287.96 290.88 288.08 287.06 288.19 283.24 C 288.78 279.76 289.10 276.27 288.82 272.76 C 288.86 268.81 288.92 264.86 289.01 260.92 C 289.61 257.22 290.12 253.51 290.66 249.81 C 290.94 250.15 291.51 250.82 291.79 251.15 C 291.04 246.27 294.31 241.64 292.95 236.84 C 294.23 223.97 297.06 211.24 297.25 198.25 C 298.25 191.47 298.40 184.54 297.23 177.78 C 297.06 176.44 296.90 175.11 296.74 173.77 C 296.82 170.60 297.03 167.45 296.79 164.29 C 296.85 161.07 297.31 157.81 296.29 154.71 C 296.11 151.79 296.02 148.90 295.90 145.99 C 296.80 140.83 298.34 148.43 297.37 150.39 Z" fill="#393d40" opacity="1.00" stroke="#393d40" stroke-width="0.25"/>
<path d="M 277.02 138.75 C 280.06 139.75 279.07 143.31 277.28 145.04 C 272.47 144.55 275.39 141.22 277.02 138.75 Z" fill="#807362" opacity="1.00" stroke="#807362" stroke-width="0.25"/>
<path d="M 172.26 144.16 C 173.43 143.05 174.32 142.62 173.81 144.72 C 173.92 149.56 170.24 149.72 166.48 149.94 C 164.11 145.64 171.84 149.31 172.26 144.16 Z" fill="#857056" opacity="1.00" stroke="#857056" stroke-width="0.25"/>
<path d="M 235.48 151.20 C 239.13 148.37 242.21 144.21 246.77 142.94 C 246.61 147.19 247.64 152.19 252.18 153.63 C 246.61 153.87 240.66 153.47 235.48 151.20 Z" fill="#f5f5f4" opacity="1.00" stroke="#f5f5f4" stroke-width="0.25"/>
<path d="M 166.48 149.94 C 170.24 149.72 173.92 149.56 173.81 144.72 L 173.85 145.68 C 172.61 149.72 176.62 149.14 178.51 147.05 C 183.45 145.13 188.85 144.19 194.03 145.98 C 198.19 147.02 205.30 150.54 203.01 155.94 C 200.12 158.71 196.52 160.67 192.33 160.50 C 192.05 160.17 191.51 159.50 191.23 159.17 C 188.56 156.82 186.41 153.39 187.60 149.78 C 184.00 150.45 180.47 152.22 178.88 155.70 C 177.92 155.51 176.96 155.34 176.00 155.20 C 172.38 154.67 167.53 154.25 166.48 149.94 Z" fill="#1e2424" opacity="1.00" stroke="#1e2424" stroke-width="0.25"/>
<path d="M 173.85 145.68 C 175.62 145.04 177.10 146.09 178.51 147.05 C 176.62 149.14 172.61 149.72 173.85 145.68 Z" fill="#896b56" opacity="1.00" stroke="#896b56" stroke-width="0.25"/>
<path d="M 129.84 147.79 C 133.67 145.42 137.38 146.67 132.97 150.39 C 133.33 148.65 132.67 147.83 130.97 147.95 L 129.84 147.79 Z" fill="#5b4d3c" opacity="1.00" stroke="#5b4d3c" stroke-width="0.25"/>
<path d="M 205.06 145.84 C 215.29 153.91 212.40 168.46 209.43 179.38 C 208.58 183.26 203.74 187.63 207.51 191.29 C 211.93 197.97 221.64 196.95 226.95 191.83 C 223.18 198.99 213.38 201.74 206.88 196.69 C 204.78 193.75 200.08 191.77 202.11 187.16 C 207.81 177.15 210.77 165.09 208.25 153.68 C 207.54 150.93 206.07 148.47 205.06 145.84 Z" fill="#a5744f" opacity="1.00" stroke="#a5744f" stroke-width="0.25"/>
<path d="M 261.62 151.29 C 262.54 144.15 271.05 149.26 275.99 146.48 C 282.33 146.68 288.93 147.54 295.18 146.21 L 295.90 145.99 C 296.02 148.90 296.11 151.79 296.29 154.71 C 296.14 157.90 295.58 161.23 296.79 164.29 C 297.03 167.45 296.82 170.60 296.74 173.77 C 295.73 181.99 297.46 190.98 291.96 197.97 C 289.08 205.29 276.54 213.86 270.05 205.94 C 265.12 193.11 244.76 199.99 240.82 185.09 C 240.81 177.85 242.14 166.53 251.98 166.87 C 261.77 166.14 266.77 157.81 269.80 149.70 C 266.98 149.78 264.43 152.08 261.62 151.29 Z" fill="#e79e76" opacity="1.00" stroke="#e79e76" stroke-width="0.25"/>
<path d="M 130.97 147.95 C 132.67 147.83 133.33 148.65 132.97 150.39 C 127.90 154.21 123.14 158.44 118.90 163.15 C 120.11 156.20 127.42 153.40 130.97 147.95 Z" fill="#c2b778" opacity="1.00" stroke="#c2b778" stroke-width="0.25"/>
<path d="M 140.00 149.18 C 142.13 150.10 141.49 154.17 140.48 155.95 C 139.74 153.77 139.58 151.52 140.00 149.18 Z" fill="#82847e" opacity="1.00" stroke="#82847e" stroke-width="0.25"/>
<path d="M 178.88 155.70 C 180.47 152.22 184.00 150.45 187.60 149.78 C 186.41 153.39 188.56 156.82 191.23 159.17 C 189.82 159.30 188.44 159.66 187.17 160.27 C 184.80 158.98 182.34 157.88 179.99 156.57 C 179.72 156.35 179.16 155.91 178.88 155.70 Z" fill="#f1eddc" opacity="1.00" stroke="#f1eddc" stroke-width="0.25"/>
<path d="M 203.01 155.94 C 204.59 154.78 206.07 152.85 208.25 153.68 C 210.77 165.09 207.81 177.15 202.11 187.16 C 200.08 191.77 204.78 193.75 206.88 196.69 C 204.34 199.14 204.57 200.29 208.20 199.14 C 203.61 206.35 192.70 205.94 188.73 213.42 C 184.01 203.72 178.38 194.28 175.60 183.78 C 176.02 174.60 177.37 165.39 179.99 156.57 C 182.34 157.88 184.80 158.98 187.17 160.27 C 188.46 160.32 191.04 160.44 192.33 160.50 C 196.52 160.67 200.12 158.71 203.01 155.94 Z" fill="#e8a880" opacity="1.00" stroke="#e8a880" stroke-width="0.25"/>
<path d="M 301.18 153.93 C 301.35 155.46 301.69 158.54 301.86 160.08 C 301.69 158.54 301.35 155.46 301.18 153.93 Z" fill="#8d8a65" opacity="1.00" stroke="#8d8a65" stroke-width="0.25"/>
<path d="M 176.00 155.20 C 176.96 155.34 177.92 155.51 178.88 155.70 C 179.16 155.91 179.72 156.35 179.99 156.57 C 177.37 165.39 176.02 174.60 175.60 183.78 C 175.10 185.39 175.16 189.93 173.40 186.66 C 172.97 184.29 172.71 181.35 171.45 185.18 C 170.77 175.06 174.18 165.09 176.00 155.20 Z" fill="#3a3f47" opacity="1.00" stroke="#3a3f47" stroke-width="0.25"/>
<path d="M 296.29 154.71 C 297.31 157.81 296.85 161.07 296.79 164.29 C 295.58 161.23 296.14 157.90 296.29 154.71 Z" fill="#90705f" opacity="1.00" stroke="#90705f" stroke-width="0.25"/>
<path d="M 191.23 159.17 C 191.51 159.50 192.05 160.17 192.33 160.50 C 191.04 160.44 188.46 160.32 187.17 160.27 C 188.44 159.66 189.82 159.30 191.23 159.17 Z" fill="#706454" opacity="1.00" stroke="#706454" stroke-width="0.25"/>
<path d="M 57.78 163.40 C 60.57 163.17 63.27 162.40 66.02 161.97 C 64.96 164.95 63.58 167.81 62.59 170.81 C 62.65 172.10 62.77 174.67 62.84 175.96 C 63.36 177.12 64.06 178.20 64.80 179.25 C 56.85 185.67 46.81 192.86 50.02 204.83 C 50.00 205.33 49.96 206.33 49.93 206.83 C 47.82 211.75 46.14 208.07 44.63 205.15 C 42.70 205.18 42.02 218.09 40.93 212.11 C 43.63 195.29 50.60 178.27 57.78 163.40 Z" fill="#f8df88" opacity="1.00" stroke="#f8df88" stroke-width="0.25"/>
<path d="M 140.99 164.17 C 142.81 164.01 142.62 167.14 141.56 168.00 C 140.90 166.83 140.76 165.47 140.99 164.17 Z" fill="#848f94" opacity="1.00" stroke="#848f94" stroke-width="0.25"/>
<path d="M 65.36 172.97 C 66.20 171.10 71.59 166.57 68.75 170.78 C 65.07 172.92 68.84 178.42 64.80 179.25 C 64.06 178.20 63.36 177.12 62.84 175.96 C 63.67 174.96 64.53 173.98 65.36 172.97 Z" fill="#9d9667" opacity="1.00" stroke="#9d9667" stroke-width="0.25"/>
<path d="M 62.84 175.96 C 62.77 174.67 62.65 172.10 62.59 170.81 C 63.69 171.30 65.00 171.63 65.36 172.97 C 64.53 173.98 63.67 174.96 62.84 175.96 Z" fill="#455441" opacity="1.00" stroke="#455441" stroke-width="0.25"/>
<path d="M 126.95 181.05 C 129.03 175.96 136.45 173.48 141.98 172.87 C 142.19 173.15 142.62 173.71 142.84 173.99 C 137.46 176.13 132.58 179.92 126.95 181.05 Z" fill="#b6a256" opacity="1.00" stroke="#b6a256" stroke-width="0.25"/>
<path d="M 302.30 172.70 C 303.63 177.10 302.62 181.80 302.76 186.31 C 301.22 181.95 302.43 177.18 302.30 172.70 Z" fill="#78755e" opacity="1.00" stroke="#78755e" stroke-width="0.25"/>
<path d="M 291.96 197.97 C 297.46 190.98 295.73 181.99 296.74 173.77 C 296.90 175.11 297.06 176.44 297.23 177.78 C 297.07 184.60 296.80 191.43 297.25 198.25 C 297.06 211.24 294.23 223.97 292.95 236.84 C 273.68 244.27 257.01 257.68 236.93 262.95 C 230.44 262.93 220.70 264.02 217.05 256.94 C 208.51 241.86 198.21 227.88 188.73 213.42 C 192.70 205.94 203.61 206.35 208.20 199.14 C 204.57 200.29 204.34 199.14 206.88 196.69 C 213.38 201.74 223.18 198.99 226.95 191.83 C 229.30 192.13 231.84 193.66 234.12 192.34 C 236.08 191.59 237.91 190.18 238.50 188.08 C 239.09 186.51 238.53 182.72 240.82 185.09 C 244.76 199.99 265.12 193.11 270.05 205.94 C 276.54 213.86 289.08 205.29 291.96 197.97 Z" fill="#eeba95" opacity="1.00" stroke="#eeba95" stroke-width="0.25"/>
<path d="M 297.23 177.78 C 298.40 184.54 298.25 191.47 297.25 198.25 C 296.80 191.43 297.07 184.60 297.23 177.78 Z" fill="#746760" opacity="1.00" stroke="#746760" stroke-width="0.25"/>
<path d="M 71.94 181.01 C 74.51 180.42 81.30 180.89 81.06 184.99 C 78.49 185.57 71.70 185.12 71.94 181.01 Z" fill="#e6dc90" opacity="1.00" stroke="#e6dc90" stroke-width="0.25"/>
<path d="M 94.02 180.86 C 96.46 181.31 99.00 183.51 99.03 186.12 C 96.93 184.76 95.26 183.01 94.02 180.86 Z" fill="#d4ce9a" opacity="1.00" stroke="#d4ce9a" stroke-width="0.25"/>
<path d="M 116.37 181.14 C 119.49 180.52 116.00 185.04 114.38 183.79 C 114.00 182.58 115.50 181.69 116.37 181.14 Z" fill="#c1c8a1" opacity="1.00" stroke="#c1c8a1" stroke-width="0.25"/>
<path d="M 171.45 185.18 C 172.71 181.35 172.97 184.29 173.40 186.66 C 175.16 189.93 175.10 185.39 175.60 183.78 C 178.38 194.28 184.01 203.72 188.73 213.42 C 198.21 227.88 208.51 241.86 217.05 256.94 C 220.70 264.02 230.44 262.93 236.93 262.95 C 257.01 257.68 273.68 244.27 292.95 236.84 C 294.31 241.64 291.04 246.27 291.79 251.15 C 291.51 250.82 290.94 250.15 290.66 249.81 C 290.76 248.13 290.95 244.77 291.05 243.09 C 272.60 249.85 257.08 263.61 237.63 267.65 C 236.50 275.82 235.11 284.04 232.51 291.89 C 231.88 293.41 231.27 294.94 230.73 296.50 C 228.07 300.81 225.78 305.33 223.50 309.85 C 216.80 319.00 211.17 329.12 203.16 337.24 C 200.88 334.85 206.50 329.63 201.69 331.70 C 205.35 326.46 209.59 321.63 213.09 316.29 C 218.54 308.37 223.39 300.01 227.30 291.22 C 230.48 283.55 231.56 275.29 232.82 267.15 C 217.46 270.70 211.12 255.73 204.76 245.24 C 195.01 231.13 184.65 217.33 177.39 201.73 C 175.01 196.37 172.82 190.89 171.45 185.18 Z" fill="#252c32" opacity="1.00" stroke="#252c32" stroke-width="0.25"/>
<path d="M 131.84 185.88 C 135.02 185.83 137.59 183.74 140.78 184.12 C 146.40 188.92 131.89 187.59 131.84 185.88 Z" fill="#c4ae5b" opacity="1.00" stroke="#c4ae5b" stroke-width="0.25"/>
<path d="M 321.80 244.84 C 330.70 225.45 334.39 204.26 338.17 183.48 C 350.48 206.05 345.89 232.18 336.78 254.84 C 326.29 265.12 314.34 277.01 314.92 293.01 C 316.97 307.79 332.81 314.89 338.03 328.08 C 329.69 319.90 320.28 312.57 313.68 302.81 C 311.53 298.91 310.76 294.43 308.95 290.45 C 305.64 291.65 305.12 288.98 305.11 285.79 C 308.39 271.41 316.94 258.73 321.80 244.84 Z" fill="#ccb678" opacity="1.00" stroke="#ccb678" stroke-width="0.25"/>
<path d="M 131.84 185.88 C 127.35 190.27 127.77 181.72 131.84 185.88 Z" fill="#cfb051" opacity="1.00" stroke="#cfb051" stroke-width="0.25"/>
<path d="M 409.09 185.83 C 411.93 188.78 411.63 195.27 417.12 194.00 C 418.49 194.14 419.85 194.40 421.20 194.69 C 415.81 194.91 424.36 199.70 425.27 201.73 C 429.90 206.80 435.78 213.56 434.10 220.89 C 436.61 225.69 441.81 229.30 442.14 235.07 C 432.10 227.69 421.31 221.74 410.37 215.79 C 410.42 206.91 410.13 197.97 408.95 189.17 C 408.99 188.33 409.05 186.66 409.09 185.83 Z" fill="#f2da93" opacity="1.00" stroke="#f2da93" stroke-width="0.25"/>
<path d="M 234.12 192.34 C 235.53 191.07 236.26 186.29 238.50 188.08 C 237.91 190.18 236.08 191.59 234.12 192.34 Z" fill="#ad6a3e" opacity="1.00" stroke="#ad6a3e" stroke-width="0.25"/>
<path d="M 226.95 191.83 C 229.10 190.07 231.80 192.00 234.12 192.34 C 231.84 193.66 229.30 192.13 226.95 191.83 Z" fill="#985a38" opacity="1.00" stroke="#985a38" stroke-width="0.25"/>
<path d="M 302.20 200.23 C 301.98 197.06 302.33 193.88 302.87 190.76 C 303.02 193.94 302.61 197.08 302.20 200.23 Z" fill="#797661" opacity="1.00" stroke="#797661" stroke-width="0.25"/>
<path d="M 69.97 192.51 C 71.21 191.09 75.78 191.98 73.23 193.85 C 72.14 193.42 71.05 192.97 69.97 192.51 Z" fill="#817246" opacity="1.00" stroke="#817246" stroke-width="0.25"/>
<path d="M 417.12 194.00 C 420.63 191.05 425.59 192.15 429.24 194.30 C 426.52 194.51 423.89 194.94 421.20 194.69 C 419.85 194.40 418.49 194.14 417.12 194.00 Z" fill="#3a443f" opacity="1.00" stroke="#3a443f" stroke-width="0.25"/>
<path d="M 52.17 206.12 C 53.62 197.10 62.25 194.06 69.97 192.51 C 71.05 192.97 72.14 193.42 73.23 193.85 C 65.98 197.48 59.57 203.68 58.92 212.15 C 55.70 212.84 54.13 208.14 52.17 206.12 Z" fill="#efd27b" opacity="1.00" stroke="#efd27b" stroke-width="0.25"/>
<path d="M 429.24 194.30 C 430.87 194.54 432.89 194.24 433.69 196.06 C 434.55 198.10 436.79 196.38 436.36 194.71 L 436.89 195.13 C 437.69 198.28 440.55 200.55 442.35 196.67 C 441.99 200.30 447.14 200.31 443.85 196.99 C 446.34 197.05 448.48 201.46 450.20 197.88 C 459.29 205.82 460.34 218.84 465.67 229.14 C 467.03 222.93 468.81 216.83 470.67 210.76 C 473.52 218.56 474.17 226.97 475.00 235.16 C 474.78 236.46 474.89 237.82 475.55 238.99 C 475.99 241.61 476.14 244.28 476.02 247.01 C 475.96 253.00 475.92 259.00 476.01 265.00 C 475.80 268.29 476.54 271.79 475.55 275.00 C 474.89 276.17 474.77 277.52 475.00 278.83 C 474.78 292.41 471.90 305.85 468.91 319.06 C 467.26 315.45 466.37 319.44 465.12 321.15 C 463.86 318.82 463.07 315.74 460.13 315.06 C 458.08 316.28 460.46 318.29 460.95 319.82 C 456.08 323.35 460.82 333.75 458.45 339.54 C 457.89 342.54 456.47 345.74 458.72 348.43 C 456.50 357.54 450.41 366.42 446.27 375.14 C 445.73 372.11 444.84 369.11 444.96 366.00 C 444.39 355.95 446.27 345.64 444.31 335.71 C 443.45 328.51 446.40 319.37 438.67 315.20 C 431.35 312.61 425.10 321.34 427.26 327.91 C 426.97 328.19 426.40 328.75 426.11 329.04 C 418.60 321.50 406.54 319.80 399.64 312.14 C 403.97 314.45 404.49 306.74 406.84 304.70 C 403.23 305.49 399.94 308.31 399.64 312.14 C 396.74 308.58 392.88 305.97 389.66 302.86 C 398.31 295.24 409.18 289.95 420.70 288.65 C 421.82 287.78 433.02 290.78 428.44 287.52 L 427.93 286.99 C 426.31 285.07 421.28 283.23 425.19 281.22 C 430.81 283.59 426.51 276.06 431.27 276.19 L 432.13 275.84 C 426.48 270.06 418.47 267.33 410.90 264.92 C 399.39 259.68 386.74 257.99 374.18 259.14 C 371.79 258.85 369.41 258.54 367.05 258.20 C 368.04 256.24 367.97 252.89 370.03 252.01 C 373.91 251.48 377.82 251.18 381.70 250.66 C 385.87 250.74 390.05 250.79 394.23 250.82 C 399.20 251.82 404.13 253.16 409.17 253.83 C 423.22 255.30 434.08 265.18 446.06 271.11 C 435.29 258.88 424.03 246.62 410.32 237.69 C 404.19 233.45 396.90 230.12 389.24 231.21 C 381.46 231.19 391.99 226.89 395.08 226.59 C 389.22 222.62 381.86 222.98 375.13 221.88 C 374.92 220.24 374.89 218.58 374.98 216.94 C 378.18 215.77 381.53 215.09 384.90 214.65 C 386.85 215.65 389.13 215.47 391.08 214.54 C 395.12 215.71 398.97 217.64 403.21 218.03 C 400.90 215.65 397.46 215.48 394.64 214.06 C 399.92 213.78 405.28 214.33 410.37 215.79 C 421.31 221.74 432.10 227.69 442.14 235.07 C 441.81 229.30 436.61 225.69 434.10 220.89 C 435.78 213.56 429.90 206.80 425.27 201.73 C 424.36 199.70 415.81 194.91 421.20 194.69 C 423.89 194.94 426.52 194.51 429.24 194.30 Z" fill="#0e2227" opacity="1.00" stroke="#0e2227" stroke-width="0.25"/>
<path d="M 433.69 196.06 C 433.34 194.44 435.33 193.17 436.36 194.71 C 436.79 196.38 434.55 198.10 433.69 196.06 Z" fill="#67755b" opacity="1.00" stroke="#67755b" stroke-width="0.25"/>
<path d="M 436.89 195.13 C 438.72 195.57 440.54 196.10 442.35 196.67 C 440.55 200.55 437.69 198.28 436.89 195.13 Z" fill="#5d6c5a" opacity="1.00" stroke="#5d6c5a" stroke-width="0.25"/>
<path d="M 442.35 196.67 C 442.72 196.75 443.48 196.91 443.85 196.99 C 447.14 200.31 441.99 200.30 442.35 196.67 Z" fill="#748c71" opacity="1.00" stroke="#748c71" stroke-width="0.25"/>
<path d="M 128.90 202.13 C 134.80 199.57 141.45 202.20 143.73 208.07 C 138.09 220.89 129.26 232.65 126.68 246.72 C 126.03 250.84 125.42 255.23 126.63 259.32 C 126.76 259.98 127.00 261.31 127.13 261.97 C 128.03 266.02 123.00 263.74 120.98 265.99 C 117.94 268.54 114.42 262.85 113.06 268.16 C 112.16 254.73 114.46 240.99 112.25 227.72 C 111.96 224.77 111.96 221.73 112.05 218.80 C 116.37 219.55 116.91 224.98 119.20 227.92 C 124.82 228.55 119.00 213.68 127.27 218.67 C 129.29 220.70 130.61 216.19 132.59 215.57 C 137.49 211.17 130.14 206.51 128.90 202.13 Z" fill="#e7ba3d" opacity="1.00" stroke="#e7ba3d" stroke-width="0.25"/>
<path d="M 177.39 201.73 C 184.65 217.33 195.01 231.13 204.76 245.24 C 211.12 255.73 217.46 270.70 232.82 267.15 C 231.56 275.29 230.48 283.55 227.30 291.22 C 220.71 280.31 211.43 271.43 203.16 261.85 C 193.51 251.22 179.46 246.45 168.38 237.73 C 166.90 236.54 165.57 232.26 163.62 235.12 C 154.39 232.16 169.59 227.89 166.93 222.75 C 172.83 217.18 176.97 210.00 177.39 201.73 Z" fill="#897458" opacity="1.00" stroke="#897458" stroke-width="0.25"/>
<path d="M 80.64 207.79 C 84.76 205.42 89.22 203.54 93.95 202.85 C 89.45 208.25 89.41 215.32 91.13 221.91 C 90.62 223.32 90.56 225.00 91.74 226.11 C 91.84 226.87 92.04 228.38 92.14 229.14 C 94.36 224.63 94.12 215.35 101.74 217.12 C 105.47 223.33 101.75 232.63 102.80 239.76 C 101.71 246.46 102.04 253.25 102.01 260.01 C 99.12 260.67 94.80 264.76 93.52 260.13 C 92.59 261.05 91.81 262.09 91.01 263.12 C 91.11 253.31 87.13 242.59 89.62 233.37 C 85.89 225.13 81.73 216.89 80.64 207.79 Z" fill="#efbf44" opacity="1.00" stroke="#efbf44" stroke-width="0.25"/>
<path d="M 221.91 211.88 C 234.13 207.05 247.76 208.32 260.12 203.98 C 257.89 206.75 255.38 209.30 252.78 211.74 C 240.14 217.86 225.56 226.92 211.17 220.88 C 208.32 219.73 204.07 217.60 204.11 214.24 C 208.97 209.47 216.00 209.57 221.91 211.88 Z" fill="#b3482b" opacity="1.00" stroke="#b3482b" stroke-width="0.25"/>
<path d="M 40.93 212.11 C 42.02 218.09 42.70 205.18 44.63 205.15 C 46.14 208.07 47.82 211.75 49.93 206.83 C 48.80 210.66 53.09 211.02 51.91 207.02 L 52.17 206.12 C 54.13 208.14 55.70 212.84 58.92 212.15 C 58.73 213.76 58.50 215.37 58.40 217.00 C 55.66 223.77 59.01 223.64 62.11 220.36 C 67.05 214.43 73.15 209.97 80.64 207.79 C 81.73 216.89 85.89 225.13 89.62 233.37 C 87.13 242.59 91.11 253.31 91.01 263.12 C 93.14 269.54 87.60 282.05 95.14 284.71 C 91.03 285.35 87.38 288.16 83.09 287.39 C 76.46 289.26 70.41 292.97 63.75 294.89 C 67.97 285.86 76.19 279.75 83.18 273.01 C 80.73 272.97 78.37 273.66 76.05 274.36 C 72.99 271.24 74.71 266.69 74.05 262.79 C 74.65 261.29 77.90 258.70 76.29 257.79 C 75.21 257.43 74.12 257.09 73.02 256.80 C 72.82 251.93 73.24 247.09 73.85 242.27 C 70.58 242.06 67.28 241.87 64.12 240.96 C 56.30 239.74 45.92 238.99 39.32 240.75 C 38.76 255.24 38.87 269.76 39.24 284.26 C 38.25 283.36 37.23 282.49 36.20 281.65 C 35.94 258.74 33.58 233.08 40.93 212.11 Z" fill="#f5de97" opacity="1.00" stroke="#f5de97" stroke-width="0.25"/>
<path d="M 50.02 204.83 C 50.65 205.56 51.28 206.29 51.91 207.02 C 53.09 211.02 48.80 210.66 49.93 206.83 C 49.96 206.33 50.00 205.33 50.02 204.83 Z" fill="#8e9266" opacity="1.00" stroke="#8e9266" stroke-width="0.25"/>
<path d="M 211.17 220.88 C 225.56 226.92 240.14 217.86 252.78 211.74 C 246.80 223.98 233.88 235.17 219.31 231.68 C 214.78 230.87 207.59 225.86 211.17 220.88 Z" fill="#c57233" opacity="1.00" stroke="#c57233" stroke-width="0.25"/>
<path d="M 384.90 214.65 C 386.54 213.02 388.60 212.98 391.08 214.54 C 389.13 215.47 386.85 215.65 384.90 214.65 Z" fill="#8d742e" opacity="1.00" stroke="#8d742e" stroke-width="0.25"/>
<path d="M 62.11 220.36 C 59.01 223.64 55.66 223.77 58.40 217.00 C 59.28 218.47 60.75 219.39 62.11 220.36 Z" fill="#777453" opacity="1.00" stroke="#777453" stroke-width="0.25"/>
<path d="M 103.99 223.99 C 99.52 218.76 106.32 217.59 107.68 220.22 C 106.92 238.79 108.22 257.32 108.08 275.91 C 108.47 275.95 109.24 276.01 109.62 276.04 C 110.31 258.50 109.02 238.57 110.92 223.13 C 110.79 247.78 111.72 272.49 110.32 297.11 C 111.17 296.79 112.01 296.45 112.85 296.09 C 113.15 296.54 113.74 297.44 114.04 297.89 C 106.28 302.29 96.73 302.42 88.98 307.06 C 83.56 310.14 78.18 313.46 73.82 317.99 C 78.51 317.73 82.53 315.00 87.02 313.91 C 80.31 319.45 79.11 330.18 77.19 336.66 C 76.22 336.12 66.49 334.96 69.70 337.70 C 72.25 338.34 76.83 337.71 77.98 340.09 C 78.01 344.72 77.95 349.37 78.02 354.01 C 79.07 357.53 78.72 359.90 76.96 361.13 C 76.11 358.71 79.02 352.55 75.12 352.99 C 72.46 352.41 70.00 352.64 67.73 353.67 C 65.34 357.78 74.26 358.58 76.96 361.13 C 77.21 361.40 77.71 361.96 77.96 362.23 C 77.57 371.87 78.96 381.69 77.44 391.26 C 57.26 362.80 41.82 329.83 38.06 294.90 L 38.17 294.21 C 38.68 290.89 39.04 287.59 39.24 284.26 C 40.17 269.85 40.87 255.09 39.32 240.75 C 45.92 238.99 56.30 239.74 64.12 240.96 C 64.75 246.12 62.66 252.73 64.77 257.25 C 68.49 257.97 72.33 258.15 76.29 257.79 C 77.90 258.70 74.65 261.29 74.05 262.79 C 70.53 267.57 67.98 272.99 64.98 278.10 C 68.63 276.75 72.28 275.37 76.05 274.36 C 78.37 273.66 80.73 272.97 83.18 273.01 C 76.19 279.75 67.97 285.86 63.75 294.89 C 70.41 292.97 76.46 289.26 83.09 287.39 C 87.38 288.16 91.03 285.35 95.14 284.71 C 97.41 284.37 99.70 284.13 102.00 283.97 L 102.98 283.89 C 105.44 265.64 103.26 243.66 103.99 223.99 Z" fill="#13262d" opacity="1.00" stroke="#13262d" stroke-width="0.25"/>
<path d="M 91.13 221.91 C 92.53 222.88 92.38 224.72 91.74 226.11 C 90.56 225.00 90.62 223.32 91.13 221.91 Z" fill="#7e6a27" opacity="1.00" stroke="#7e6a27" stroke-width="0.25"/>
<path d="M 375.13 221.88 C 381.86 222.98 389.22 222.62 395.08 226.59 C 391.99 226.89 381.46 231.19 389.24 231.21 C 385.04 231.28 379.88 238.37 377.31 232.97 C 376.72 235.10 376.14 237.23 375.40 239.32 C 375.14 237.67 374.62 234.37 374.35 232.72 C 373.63 229.11 374.81 225.45 375.13 221.88 Z" fill="#dbb649" opacity="1.00" stroke="#dbb649" stroke-width="0.25"/>
<path d="M 150.30 271.26 C 145.41 253.08 152.41 234.35 166.93 222.75 C 169.59 227.89 154.39 232.16 163.62 235.12 C 161.98 252.59 178.55 263.85 183.84 279.13 C 185.36 284.86 184.71 290.89 185.29 296.77 C 182.01 320.49 159.12 336.02 156.97 359.97 C 154.69 373.86 166.07 383.96 177.16 389.95 C 175.16 389.74 173.17 389.41 171.18 389.18 C 156.74 384.30 149.17 367.58 152.06 353.03 C 156.43 335.08 170.03 321.71 176.89 304.90 C 181.95 293.67 180.67 280.28 173.90 270.07 C 167.49 260.77 160.02 251.57 158.68 239.90 C 152.66 246.50 155.43 256.65 155.22 264.81 C 154.78 267.28 154.21 269.72 153.65 272.17 C 151.17 270.41 153.22 266.57 151.18 264.79 C 150.96 266.41 150.52 269.64 150.30 271.26 Z" fill="#91846b" opacity="1.00" stroke="#91846b" stroke-width="0.25"/>
<path d="M 112.25 227.72 C 114.46 240.99 112.16 254.73 113.06 268.16 C 112.99 277.18 113.10 286.20 112.68 295.22 C 111.20 272.80 112.18 250.20 112.25 227.72 Z" fill="#a7974b" opacity="1.00" stroke="#a7974b" stroke-width="0.25"/>
<path d="M 389.24 231.21 C 396.90 230.12 404.19 233.45 410.32 237.69 C 410.00 243.07 409.87 248.48 409.17 253.83 C 404.13 253.16 399.20 251.82 394.23 250.82 C 390.13 249.94 385.77 249.46 381.70 250.66 C 377.82 251.18 373.91 251.48 370.03 252.01 C 371.14 245.51 372.88 239.14 374.35 232.72 C 374.62 234.37 375.14 237.67 375.40 239.32 C 376.14 237.23 376.72 235.10 377.31 232.97 C 379.88 238.37 385.04 231.28 389.24 231.21 Z" fill="#eebd3a" opacity="1.00" stroke="#eebd3a" stroke-width="0.25"/>
<path d="M 29.14 236.08 C 28.59 234.67 28.57 232.98 29.79 231.91 C 30.36 233.29 30.55 235.12 29.14 236.08 Z" fill="#898b93" opacity="1.00" stroke="#898b93" stroke-width="0.25"/>
<path d="M 163.62 235.12 C 165.57 232.26 166.90 236.54 168.38 237.73 C 179.46 246.45 193.51 251.22 203.16 261.85 C 211.43 271.43 220.71 280.31 227.30 291.22 C 223.39 300.01 218.54 308.37 213.09 316.29 C 210.88 312.24 216.28 309.63 216.36 305.79 C 216.46 303.27 216.52 300.75 216.78 298.24 C 211.88 299.09 206.47 299.43 202.03 297.12 C 197.50 296.53 192.63 300.17 188.28 297.39 C 186.71 301.53 185.75 301.03 185.29 296.77 C 184.71 290.89 185.36 284.86 183.84 279.13 C 178.55 263.85 161.98 252.59 163.62 235.12 Z" fill="#af9b78" opacity="1.00" stroke="#af9b78" stroke-width="0.25"/>
<path d="M 475.00 235.16 C 476.82 235.00 476.63 238.14 475.55 238.99 C 474.89 237.82 474.78 236.46 475.00 235.16 Z" fill="#758087" opacity="1.00" stroke="#758087" stroke-width="0.25"/>
<path d="M 488.00 235.16 C 489.81 235.01 489.62 238.13 488.56 238.99 C 487.90 237.82 487.76 236.46 488.00 235.16 Z" fill="#93989d" opacity="1.00" stroke="#93989d" stroke-width="0.25"/>
<path d="M 22.50 242.92 C 21.27 241.55 20.79 237.50 23.06 237.19 C 22.92 238.62 22.64 241.49 22.50 242.92 Z" fill="#92999f" opacity="1.00" stroke="#92999f" stroke-width="0.25"/>
<path d="M 410.32 237.69 C 424.03 246.62 435.29 258.88 446.06 271.11 C 434.08 265.18 423.22 255.30 409.17 253.83 C 409.87 248.48 410.00 243.07 410.32 237.69 Z" fill="#f1da98" opacity="1.00" stroke="#f1da98" stroke-width="0.25"/>
<path d="M 482.19 238.92 C 483.43 239.96 483.39 241.66 482.90 243.07 C 481.46 242.14 481.62 240.30 482.19 238.92 Z" fill="#acafb2" opacity="1.00" stroke="#acafb2" stroke-width="0.25"/>
<path d="M 102.01 260.01 C 102.04 253.25 101.71 246.46 102.80 239.76 C 103.21 254.46 102.93 269.18 102.98 283.89 L 102.00 283.97 C 101.98 275.98 102.04 267.99 102.01 260.01 Z" fill="#b4a65b" opacity="1.00" stroke="#b4a65b" stroke-width="0.25"/>
<path d="M 155.22 264.81 C 155.43 256.65 152.66 246.50 158.68 239.90 C 160.02 251.57 167.49 260.77 173.90 270.07 C 180.67 280.28 181.95 293.67 176.89 304.90 C 170.03 321.71 156.43 335.08 152.06 353.03 C 149.17 367.58 156.74 384.30 171.18 389.18 C 169.66 389.88 168.16 390.62 166.66 391.37 C 162.67 390.18 158.86 388.45 155.00 386.93 C 145.07 377.58 136.41 365.69 137.64 351.23 C 142.45 333.35 153.25 317.32 155.46 298.58 C 157.25 287.39 157.58 275.95 155.22 264.81 Z" fill="#e1cf8a" opacity="1.00" stroke="#e1cf8a" stroke-width="0.25"/>
<path d="M 39.32 240.75 C 40.87 255.09 40.17 269.85 39.24 284.26 C 38.87 269.76 38.76 255.24 39.32 240.75 Z" fill="#4c4831" opacity="1.00" stroke="#4c4831" stroke-width="0.25"/>
<path d="M 64.12 240.96 C 67.28 241.87 70.58 242.06 73.85 242.27 C 73.24 247.09 72.82 251.93 73.02 256.80 C 70.27 256.95 67.52 257.10 64.77 257.25 C 62.66 252.73 64.75 246.12 64.12 240.96 Z" fill="#89856f" opacity="1.00" stroke="#89856f" stroke-width="0.25"/>
<path d="M 237.63 267.65 C 257.08 263.61 272.60 249.85 291.05 243.09 C 290.95 244.77 290.76 248.13 290.66 249.81 C 290.12 253.51 289.61 257.22 289.01 260.92 C 290.17 270.25 280.54 273.64 275.18 279.15 C 262.98 285.83 250.45 293.55 236.11 293.96 C 234.73 293.65 233.67 292.62 232.51 291.89 C 235.11 284.04 236.50 275.82 237.63 267.65 Z" fill="#edaa74" opacity="1.00" stroke="#edaa74" stroke-width="0.25"/>
<path d="M 28.65 269.29 C 26.94 261.26 28.05 252.85 28.81 244.78 C 29.09 252.94 29.10 261.12 28.65 269.29 Z" fill="#8d9092" opacity="1.00" stroke="#8d9092" stroke-width="0.25"/>
<path d="M 126.63 259.32 C 125.42 255.23 126.03 250.84 126.68 246.72 C 127.08 250.91 127.07 255.12 126.63 259.32 Z" fill="#e1d195" opacity="1.00" stroke="#e1d195" stroke-width="0.25"/>
<path d="M 476.02 247.01 C 477.06 250.29 478.69 261.66 476.01 265.00 C 475.92 259.00 475.96 253.00 476.02 247.01 Z" fill="#adafac" opacity="1.00" stroke="#adafac" stroke-width="0.25"/>
<path d="M 489.02 247.01 C 490.31 251.24 491.26 263.80 489.03 268.00 C 488.91 261.00 488.98 254.00 489.02 247.01 Z" fill="#b5b9bf" opacity="1.00" stroke="#b5b9bf" stroke-width="0.25"/>
<path d="M 381.70 250.66 C 385.77 249.46 390.13 249.94 394.23 250.82 C 390.05 250.79 385.87 250.74 381.70 250.66 Z" fill="#8f782d" opacity="1.00" stroke="#8f782d" stroke-width="0.25"/>
<path d="M 314.92 293.01 C 314.34 277.01 326.29 265.12 336.78 254.84 C 336.45 272.89 344.20 293.62 361.98 301.03 C 374.75 306.64 388.80 312.62 396.10 325.26 C 392.39 348.99 373.00 366.58 362.67 387.08 C 354.35 373.91 356.98 356.67 348.69 343.30 C 345.63 337.88 341.65 333.11 338.03 328.08 C 332.81 314.89 316.97 307.79 314.92 293.01 Z" fill="#baa47a" opacity="1.00" stroke="#baa47a" stroke-width="0.25"/>
<path d="M 64.77 257.25 C 67.52 257.10 70.27 256.95 73.02 256.80 C 74.12 257.09 75.21 257.43 76.29 257.79 C 72.33 258.15 68.49 257.97 64.77 257.25 Z" fill="#525547" opacity="1.00" stroke="#525547" stroke-width="0.25"/>
<path d="M 367.05 258.20 C 369.41 258.54 371.79 258.85 374.18 259.14 C 373.10 259.61 372.01 260.07 370.95 260.59 C 376.55 260.94 372.91 268.75 376.91 271.29 C 377.52 271.97 378.19 272.61 378.92 273.20 C 374.36 275.65 368.08 275.24 364.60 279.57 C 361.35 274.87 364.52 264.34 367.05 258.20 Z" fill="#ddc26f" opacity="1.00" stroke="#ddc26f" stroke-width="0.25"/>
<path d="M 374.18 259.14 C 386.74 257.99 399.39 259.68 410.90 264.92 C 408.83 269.20 416.42 268.75 411.99 270.76 C 409.09 270.41 406.14 270.07 403.26 269.76 C 400.06 269.12 396.80 268.54 393.70 269.73 C 389.79 270.27 385.88 270.74 381.98 271.17 C 380.28 270.92 378.57 270.92 376.91 271.29 C 372.91 268.75 376.55 260.94 370.95 260.59 C 372.01 260.07 373.10 259.61 374.18 259.14 Z" fill="#e7b64a" opacity="1.00" stroke="#e7b64a" stroke-width="0.25"/>
<path d="M 91.01 263.12 C 91.81 262.09 92.59 261.05 93.52 260.13 C 94.80 264.76 99.12 260.67 102.01 260.01 C 102.04 267.99 101.98 275.98 102.00 283.97 C 99.70 284.13 97.41 284.37 95.14 284.71 C 87.60 282.05 93.14 269.54 91.01 263.12 Z" fill="#eec96e" opacity="1.00" stroke="#eec96e" stroke-width="0.25"/>
<path d="M 275.18 279.15 C 280.54 273.64 290.17 270.25 289.01 260.92 C 288.92 264.86 288.86 268.81 288.82 272.76 C 288.18 276.21 287.91 279.74 288.19 283.24 C 288.08 287.06 287.96 290.88 287.84 294.70 C 274.26 304.76 262.27 317.80 253.42 332.25 C 254.10 324.44 248.36 319.24 242.38 315.64 C 237.28 310.10 235.83 302.10 230.73 296.50 C 231.27 294.94 231.88 293.41 232.51 291.89 C 233.67 292.62 234.73 293.65 236.11 293.96 C 250.45 293.55 262.98 285.83 275.18 279.15 Z" fill="#edba95" opacity="1.00" stroke="#edba95" stroke-width="0.25"/>
<path d="M 127.13 261.97 C 132.83 272.25 135.69 290.66 120.21 294.57 C 117.60 294.13 114.95 293.67 112.68 295.22 C 113.10 286.20 112.99 277.18 113.06 268.16 C 114.42 262.85 117.94 268.54 120.98 265.99 C 123.00 263.74 128.03 266.02 127.13 261.97 Z" fill="#dec578" opacity="1.00" stroke="#dec578" stroke-width="0.25"/>
<path d="M 64.98 278.10 C 67.98 272.99 70.53 267.57 74.05 262.79 C 74.71 266.69 72.99 271.24 76.05 274.36 C 72.28 275.37 68.63 276.75 64.98 278.10 Z" fill="#cdbb8c" opacity="1.00" stroke="#cdbb8c" stroke-width="0.25"/>
<path d="M 151.18 264.79 C 153.22 266.57 151.17 270.41 153.65 272.17 C 154.21 269.72 154.78 267.28 155.22 264.81 C 157.58 275.95 157.25 287.39 155.46 298.58 C 153.25 317.32 142.45 333.35 137.64 351.23 C 133.09 337.70 144.46 326.03 146.03 313.01 C 148.18 304.44 149.73 295.66 149.94 286.81 C 150.06 281.63 150.07 276.43 150.30 271.26 C 150.52 269.64 150.96 266.41 151.18 264.79 Z" fill="#ac9972" opacity="1.00" stroke="#ac9972" stroke-width="0.25"/>
<path d="M 410.90 264.92 C 418.47 267.33 426.48 270.06 432.13 275.84 L 431.27 276.19 C 424.93 274.08 418.48 272.30 411.99 270.76 C 416.42 268.75 408.83 269.20 410.90 264.92 Z" fill="#e9d890" opacity="1.00" stroke="#e9d890" stroke-width="0.25"/>
<path d="M 22.53 269.04 C 23.24 271.20 23.40 273.45 23.00 275.81 C 20.86 274.89 21.49 270.82 22.53 269.04 Z" fill="#8e959c" opacity="1.00" stroke="#8e959c" stroke-width="0.25"/>
<path d="M 393.70 269.73 C 396.80 268.54 400.06 269.12 403.26 269.76 C 400.03 269.74 396.89 269.84 393.70 269.73 Z" fill="#685e29" opacity="1.00" stroke="#685e29" stroke-width="0.25"/>
<path d="M 381.98 271.17 C 385.88 270.74 389.79 270.27 393.70 269.73 C 396.89 269.84 400.03 269.74 403.26 269.76 C 406.14 270.07 409.09 270.41 411.99 270.76 C 418.48 272.30 424.93 274.08 431.27 276.19 C 426.51 276.06 430.81 283.59 425.19 281.22 C 421.28 283.23 426.31 285.07 427.93 286.99 C 412.08 282.12 395.15 289.08 380.64 295.77 C 377.51 295.35 371.56 288.47 371.79 287.20 C 377.94 288.80 383.51 285.23 389.33 284.07 C 392.73 283.29 396.16 282.51 399.38 281.13 C 390.17 280.55 380.53 281.42 371.99 285.09 C 368.37 287.63 366.10 282.06 364.60 279.57 C 368.08 275.24 374.36 275.65 378.92 273.20 C 380.00 272.63 380.98 271.89 381.98 271.17 Z" fill="#0d1d1f" opacity="1.00" stroke="#0d1d1f" stroke-width="0.25"/>
<path d="M 376.91 271.29 C 378.57 270.92 380.28 270.92 381.98 271.17 C 380.98 271.89 380.00 272.63 378.92 273.20 C 378.19 272.61 377.52 271.97 376.91 271.29 Z" fill="#8e7b4d" opacity="1.00" stroke="#8e7b4d" stroke-width="0.25"/>
<path d="M 288.19 283.24 C 287.91 279.74 288.18 276.21 288.82 272.76 C 289.10 276.27 288.78 279.76 288.19 283.24 Z" fill="#816b5a" opacity="1.00" stroke="#816b5a" stroke-width="0.25"/>
<path d="M 358.01 289.20 C 355.04 284.32 353.70 277.94 356.59 272.73 C 356.99 283.31 365.15 290.98 372.06 298.00 C 368.01 293.70 361.35 294.10 358.01 289.20 Z" fill="#66695b" opacity="1.00" stroke="#66695b" stroke-width="0.25"/>
<path d="M 475.00 278.83 C 474.77 277.52 474.89 276.17 475.55 275.00 C 476.62 275.85 476.82 278.98 475.00 278.83 Z" fill="#7e858e" opacity="1.00" stroke="#7e858e" stroke-width="0.25"/>
<path d="M 482.25 280.08 C 481.62 278.38 481.39 276.31 482.82 274.94 C 483.37 276.64 483.52 278.64 482.25 280.08 Z" fill="#9a9ea3" opacity="1.00" stroke="#9a9ea3" stroke-width="0.25"/>
<path d="M 488.03 281.82 C 487.79 280.20 487.84 278.53 488.53 277.03 C 489.51 278.18 489.97 281.62 488.03 281.82 Z" fill="#9fa3a7" opacity="1.00" stroke="#9fa3a7" stroke-width="0.25"/>
<path d="M 371.99 285.09 C 380.53 281.42 390.17 280.55 399.38 281.13 C 396.16 282.51 392.73 283.29 389.33 284.07 C 383.42 282.21 377.70 284.89 372.01 286.19 L 371.99 285.09 Z" fill="#c5b876" opacity="1.00" stroke="#c5b876" stroke-width="0.25"/>
<path d="M 23.45 282.00 C 24.10 283.17 24.23 284.52 24.00 285.83 C 22.18 285.98 22.37 282.85 23.45 282.00 Z" fill="#a3a7ad" opacity="1.00" stroke="#a3a7ad" stroke-width="0.25"/>
<path d="M 36.20 281.65 C 37.23 282.49 38.25 283.36 39.24 284.26 C 39.04 287.59 38.68 290.89 38.17 294.21 C 38.03 292.57 38.56 290.50 37.16 289.28 C 36.01 286.93 35.69 284.38 36.20 281.65 Z" fill="#c7b481" opacity="1.00" stroke="#c7b481" stroke-width="0.25"/>
<path d="M 293.30 307.30 C 295.60 299.58 292.35 288.76 294.80 283.20 C 295.04 300.63 307.16 314.68 313.91 330.03 C 319.95 342.09 319.73 356.43 327.20 367.80 C 332.27 376.06 342.35 371.99 349.77 375.19 C 354.10 382.66 353.78 391.88 357.36 399.72 C 358.92 406.23 364.61 411.08 365.21 417.83 C 365.01 425.28 359.45 431.43 352.71 434.04 C 335.96 431.11 318.17 426.64 305.69 414.34 C 297.58 405.79 300.06 392.94 298.81 382.26 C 298.87 379.19 298.87 376.06 298.93 373.01 C 300.14 370.14 299.88 367.79 298.14 365.96 C 297.47 346.33 294.25 326.90 293.30 307.30 Z" fill="#cbb679" opacity="1.00" stroke="#cbb679" stroke-width="0.25"/>
<path d="M 372.01 286.19 C 377.70 284.89 383.42 282.21 389.33 284.07 C 383.51 285.23 377.94 288.80 371.79 287.20 L 372.01 286.19 Z" fill="#8e875c" opacity="1.00" stroke="#8e875c" stroke-width="0.25"/>
<path d="M 380.64 295.77 C 395.15 289.08 412.08 282.12 427.93 286.99 L 428.44 287.52 C 425.84 287.87 423.26 288.24 420.70 288.65 C 409.18 289.95 398.31 295.24 389.66 302.86 C 386.68 300.57 382.09 299.17 380.64 295.77 Z" fill="#e5ce8b" opacity="1.00" stroke="#e5ce8b" stroke-width="0.25"/>
<path d="M 305.11 285.79 C 305.12 288.98 305.64 291.65 308.95 290.45 C 310.76 294.43 311.53 298.91 313.68 302.81 C 314.47 305.88 312.17 306.06 309.73 306.02 C 305.03 300.47 303.56 292.81 305.11 285.79 Z" fill="#b1a175" opacity="1.00" stroke="#b1a175" stroke-width="0.25"/>
<path d="M 92.45 316.05 C 115.42 321.61 140.68 308.52 149.94 286.81 C 149.73 295.66 148.18 304.44 146.03 313.01 C 144.46 326.03 133.09 337.70 137.64 351.23 C 136.41 365.69 145.07 377.58 155.00 386.93 C 165.75 398.36 181.35 403.66 196.75 404.17 C 190.98 407.17 180.59 406.55 172.72 407.23 C 175.54 409.19 179.29 408.77 182.15 410.64 C 169.48 414.87 156.17 416.13 143.06 418.15 C 126.72 417.35 110.78 413.06 96.04 406.06 C 93.97 405.02 91.89 403.99 89.83 402.93 C 89.93 402.46 90.14 401.53 90.24 401.06 C 98.55 403.45 109.01 409.68 116.52 402.52 C 123.21 394.52 121.33 382.48 118.94 373.09 C 114.82 358.65 100.52 351.57 89.36 343.24 C 80.61 335.84 83.98 322.28 92.45 316.05 Z" fill="#c9b47a" opacity="1.00" stroke="#c9b47a" stroke-width="0.25"/>
<path d="M 420.70 288.65 C 423.26 288.24 425.84 287.87 428.44 287.52 C 433.02 290.78 421.82 287.78 420.70 288.65 Z" fill="#7a7855" opacity="1.00" stroke="#7a7855" stroke-width="0.25"/>
<path d="M 37.16 289.28 C 38.56 290.50 38.03 292.57 38.17 294.21 L 38.06 294.90 C 36.14 294.20 36.72 290.90 37.16 289.28 Z" fill="#5b6865" opacity="1.00" stroke="#5b6865" stroke-width="0.25"/>
<path d="M 70.87 305.03 C 78.71 296.19 90.18 290.32 101.97 288.95 C 101.98 291.57 101.97 294.20 101.97 296.84 C 91.23 298.17 81.14 301.85 70.87 305.03 Z" fill="#e7d6a4" opacity="1.00" stroke="#e7d6a4" stroke-width="0.25"/>
<path d="M 101.97 288.95 C 103.75 289.53 103.65 296.73 101.97 296.84 C 101.97 294.20 101.98 291.57 101.97 288.95 Z" fill="#636552" opacity="1.00" stroke="#636552" stroke-width="0.25"/>
<path d="M 112.68 295.22 C 114.95 293.67 117.60 294.13 120.21 294.57 C 118.30 295.92 116.24 297.08 114.04 297.89 C 113.74 297.44 113.15 296.54 112.85 296.09 L 112.68 295.22 Z" fill="#4c5e5b" opacity="1.00" stroke="#4c5e5b" stroke-width="0.25"/>
<path d="M 253.42 332.25 C 262.27 317.80 274.26 304.76 287.84 294.70 C 287.93 300.09 288.56 305.46 288.83 310.85 C 282.96 309.72 278.48 317.09 273.52 320.02 C 265.87 322.61 258.58 326.18 254.23 333.27 C 249.55 336.88 250.30 327.67 248.69 325.31 C 242.16 317.67 229.82 317.41 223.50 309.85 C 225.78 305.33 228.07 300.81 230.73 296.50 C 235.83 302.10 237.28 310.10 242.38 315.64 C 248.36 319.24 254.10 324.44 253.42 332.25 Z" fill="#ca8c43" opacity="1.00" stroke="#ca8c43" stroke-width="0.25"/>
<path d="M 188.28 297.39 C 192.63 300.17 197.50 296.53 202.03 297.12 C 206.47 299.43 211.88 299.09 216.78 298.24 C 216.52 300.75 216.46 303.27 216.36 305.79 C 216.28 309.63 210.88 312.24 213.09 316.29 C 209.59 321.63 205.35 326.46 201.69 331.70 C 193.72 340.75 185.38 349.53 178.27 359.30 C 171.89 367.06 175.05 377.99 178.71 386.23 C 180.84 392.68 170.74 392.72 166.66 391.37 C 168.16 390.62 169.66 389.88 171.18 389.18 C 173.17 389.41 175.16 389.74 177.16 389.95 C 166.07 383.96 154.69 373.86 156.97 359.97 C 159.12 336.02 182.01 320.49 185.29 296.77 C 185.75 301.03 186.71 301.53 188.28 297.39 Z" fill="#bba579" opacity="1.00" stroke="#bba579" stroke-width="0.25"/>
<path d="M 309.73 306.02 C 312.17 306.06 314.47 305.88 313.68 302.81 C 320.28 312.57 329.69 319.90 338.03 328.08 C 341.65 333.11 345.63 337.88 348.69 343.30 C 356.98 356.67 354.35 373.91 362.67 387.08 C 367.17 394.25 372.62 400.88 376.28 408.56 C 375.55 409.40 374.84 410.25 374.13 411.10 C 370.47 403.40 363.98 397.55 359.87 390.11 C 352.58 378.56 352.11 364.37 346.94 352.01 C 339.35 333.21 321.81 321.52 309.73 306.02 Z" fill="#95876c" opacity="1.00" stroke="#95876c" stroke-width="0.25"/>
<path d="M 399.64 312.14 C 399.94 308.31 403.23 305.49 406.84 304.70 C 404.49 306.74 403.97 314.45 399.64 312.14 Z" fill="#dadbbe" opacity="1.00" stroke="#dadbbe" stroke-width="0.25"/>
<path d="M 73.82 317.99 C 78.18 313.46 83.56 310.14 88.98 307.06 C 90.06 309.36 90.13 313.19 87.02 313.91 C 82.53 315.00 78.51 317.73 73.82 317.99 Z" fill="#e0dfdb" opacity="1.00" stroke="#e0dfdb" stroke-width="0.25"/>
<path d="M 421.33 309.32 C 423.14 310.70 417.48 315.60 417.69 318.96 C 408.98 318.22 417.08 311.23 421.33 309.32 Z" fill="#dedaaf" opacity="1.00" stroke="#dedaaf" stroke-width="0.25"/>
<path d="M 203.16 337.24 C 211.17 329.12 216.80 319.00 223.50 309.85 C 229.82 317.41 242.16 317.67 248.69 325.31 C 250.30 327.67 249.55 336.88 254.23 333.27 C 258.58 326.18 265.87 322.61 273.52 320.02 C 278.26 320.64 283.02 321.44 287.80 321.93 C 287.84 318.80 287.87 315.69 288.77 312.69 C 291.10 333.83 292.84 355.03 294.78 376.21 C 294.60 382.07 285.68 377.77 282.04 379.10 C 279.12 377.79 276.76 378.06 274.98 379.91 C 263.68 379.99 252.37 380.15 241.07 379.86 C 239.72 378.36 237.60 378.62 235.92 379.30 C 218.62 376.90 199.71 370.32 190.00 354.87 C 191.59 347.88 199.72 343.77 203.16 337.24 Z" fill="#edb893" opacity="1.00" stroke="#edb893" stroke-width="0.25"/>
<path d="M 273.52 320.02 C 278.48 317.09 282.96 309.72 288.83 310.85 C 288.82 311.31 288.79 312.23 288.77 312.69 C 287.87 315.69 287.84 318.80 287.80 321.93 C 283.02 321.44 278.26 320.64 273.52 320.02 Z" fill="#e4a980" opacity="1.00" stroke="#e4a980" stroke-width="0.25"/>
<path d="M 427.26 327.91 C 425.10 321.34 431.35 312.61 438.67 315.20 C 446.40 319.37 443.45 328.51 444.31 335.71 C 443.90 344.82 444.00 353.94 443.99 363.06 C 439.45 352.54 436.42 339.45 428.07 330.75 C 427.99 329.74 427.72 328.79 427.26 327.91 Z" fill="#f7dd95" opacity="1.00" stroke="#f7dd95" stroke-width="0.25"/>
<path d="M 460.13 315.06 C 463.07 315.74 463.86 318.82 465.12 321.15 C 463.70 320.77 462.33 320.28 460.95 319.82 C 460.46 318.29 458.08 316.28 460.13 315.06 Z" fill="#dee1de" opacity="1.00" stroke="#dee1de" stroke-width="0.25"/>
<path d="M 465.12 321.15 C 466.37 319.44 467.26 315.45 468.91 319.06 C 466.31 328.90 464.19 339.94 458.72 348.43 C 456.47 345.74 457.89 342.54 458.45 339.54 C 460.82 333.75 456.08 323.35 460.95 319.82 C 462.33 320.28 463.70 320.77 465.12 321.15 Z" fill="#1b3037" opacity="1.00" stroke="#1b3037" stroke-width="0.25"/>
<path d="M 398.22 320.87 C 403.03 321.90 407.43 324.27 411.94 326.15 C 431.61 334.90 435.94 358.14 439.83 377.13 C 441.94 383.26 437.34 389.54 439.16 395.35 C 429.16 409.08 418.01 422.02 405.66 433.68 C 403.07 433.85 397.88 434.19 395.29 434.36 C 381.42 433.81 367.53 433.85 353.66 434.16 L 352.71 434.04 C 359.45 431.43 365.01 425.28 365.21 417.83 C 368.55 417.01 369.24 422.71 371.81 424.21 C 374.38 429.79 385.17 429.25 380.51 420.90 C 379.54 416.65 378.27 412.44 376.28 408.56 C 372.62 400.88 367.17 394.25 362.67 387.08 C 373.00 366.58 392.39 348.99 396.10 325.26 C 396.25 324.90 396.56 324.18 396.72 323.82 C 396.48 329.07 400.30 326.29 398.22 320.87 Z" fill="#f1f0e5" opacity="1.00" stroke="#f1f0e5" stroke-width="0.25"/>
<path d="M 427.26 327.91 C 427.72 328.79 427.99 329.74 428.07 330.75 C 426.68 331.06 426.03 330.49 426.11 329.04 C 426.40 328.75 426.97 328.19 427.26 327.91 Z" fill="#696f68" opacity="1.00" stroke="#696f68" stroke-width="0.25"/>
<path d="M 201.69 331.70 C 206.50 329.63 200.88 334.85 203.16 337.24 C 199.72 343.77 191.59 347.88 190.00 354.87 C 199.71 370.32 218.62 376.90 235.92 379.30 C 237.39 380.48 239.35 380.37 241.07 379.86 C 252.37 380.15 263.68 379.99 274.98 379.91 C 277.87 381.17 280.22 380.90 282.04 379.10 C 285.68 377.77 294.60 382.07 294.78 376.21 C 294.79 369.49 297.82 376.54 296.00 380.08 C 298.01 376.58 298.30 379.86 298.81 382.26 C 300.06 392.94 297.58 405.79 305.69 414.34 C 318.17 426.64 335.96 431.11 352.71 434.04 L 353.66 434.16 C 363.44 435.79 373.39 434.54 383.24 435.26 C 380.68 435.43 375.56 435.77 373.00 435.94 C 354.99 437.22 393.97 436.78 379.02 438.07 C 336.33 438.05 293.62 437.63 251.00 438.96 C 222.77 436.41 194.42 439.07 166.23 438.61 C 149.53 437.21 132.60 438.18 115.83 436.91 C 122.40 433.90 132.61 437.27 140.22 436.00 C 138.08 433.76 133.50 435.39 130.78 434.22 C 143.13 438.45 140.02 425.35 143.06 418.15 C 156.17 416.13 169.48 414.87 182.15 410.64 C 179.29 408.77 175.54 409.19 172.72 407.23 C 180.59 406.55 190.98 407.17 196.75 404.17 C 181.35 403.66 165.75 398.36 155.00 386.93 C 158.86 388.45 162.67 390.18 166.66 391.37 C 170.74 392.72 180.84 392.68 178.71 386.23 C 175.05 377.99 171.89 367.06 178.27 359.30 C 185.38 349.53 193.72 340.75 201.69 331.70 Z" fill="#23313d" opacity="1.00" stroke="#23313d" stroke-width="0.25"/>
<path d="M 69.70 337.70 C 66.49 334.96 76.22 336.12 77.19 336.66 C 74.68 336.91 72.18 337.25 69.70 337.70 Z" fill="#79767b" opacity="1.00" stroke="#79767b" stroke-width="0.25"/>
<path d="M 444.31 335.71 C 446.27 345.64 444.39 355.95 444.96 366.00 C 443.90 365.72 443.57 364.74 443.99 363.06 C 444.00 353.94 443.90 344.82 444.31 335.71 Z" fill="#4e523c" opacity="1.00" stroke="#4e523c" stroke-width="0.25"/>
<path d="M 77.98 340.09 C 79.36 341.78 80.31 351.70 78.02 354.01 C 77.95 349.37 78.01 344.72 77.98 340.09 Z" fill="#989a9c" opacity="1.00" stroke="#989a9c" stroke-width="0.25"/>
<path d="M 67.01 341.99 C 69.52 342.46 73.92 340.59 75.21 343.94 C 74.16 341.89 65.70 346.67 67.01 341.99 Z" fill="#d2c6b8" opacity="1.00" stroke="#d2c6b8" stroke-width="0.25"/>
<path d="M 84.15 341.97 C 85.87 342.47 87.51 344.15 89.36 343.24 C 100.52 351.57 114.82 358.65 118.94 373.09 C 121.33 382.48 123.21 394.52 116.52 402.52 C 109.01 409.68 98.55 403.45 90.24 401.06 C 90.14 401.53 89.93 402.46 89.83 402.93 C 87.46 401.62 84.00 400.14 84.00 397.00 C 83.69 378.66 84.31 360.30 84.15 341.97 Z" fill="#f1f0e6" opacity="1.00" stroke="#f1f0e6" stroke-width="0.25"/>
<path d="M 67.73 353.67 C 70.00 352.64 72.46 352.41 75.12 352.99 C 72.32 354.58 73.30 355.25 76.22 355.36 C 74.70 355.68 70.22 358.64 71.43 355.41 C 72.56 353.02 69.02 354.14 67.73 353.67 Z" fill="#a59c95" opacity="1.00" stroke="#a59c95" stroke-width="0.25"/>
<path d="M 75.12 352.99 C 79.02 352.55 76.11 358.71 76.96 361.13 C 74.26 358.58 65.34 357.78 67.73 353.67 C 69.02 354.14 72.56 353.02 71.43 355.41 C 70.22 358.64 74.70 355.68 76.22 355.36 C 73.30 355.25 72.32 354.58 75.12 352.99 Z" fill="#e7e1d9" opacity="1.00" stroke="#e7e1d9" stroke-width="0.25"/>
<path d="M 77.96 362.23 C 80.36 369.53 78.40 382.63 78.96 392.11 C 79.84 394.26 76.72 392.03 77.44 391.26 C 78.96 381.69 77.57 371.87 77.96 362.23 Z" fill="#929c9d" opacity="1.00" stroke="#929c9d" stroke-width="0.25"/>
<path d="M 67.89 363.98 C 69.62 364.87 72.62 365.46 72.03 368.05 C 69.81 368.21 67.95 366.09 67.89 363.98 Z" fill="#b6b3a7" opacity="1.00" stroke="#b6b3a7" stroke-width="0.25"/>
<path d="M 298.14 365.96 C 299.88 367.79 300.14 370.14 298.93 373.01 C 297.04 371.23 296.78 368.88 298.14 365.96 Z" fill="#7f7b67" opacity="1.00" stroke="#7f7b67" stroke-width="0.25"/>
<path d="M 235.92 379.30 C 237.60 378.62 239.72 378.36 241.07 379.86 C 239.35 380.37 237.39 380.48 235.92 379.30 Z" fill="#8a776b" opacity="1.00" stroke="#8a776b" stroke-width="0.25"/>
<path d="M 274.98 379.91 C 276.76 378.06 279.12 377.79 282.04 379.10 C 280.22 380.90 277.87 381.17 274.98 379.91 Z" fill="#937e69" opacity="1.00" stroke="#937e69" stroke-width="0.25"/>
<path d="M 96.04 406.06 C 110.78 413.06 126.72 417.35 143.06 418.15 C 140.02 425.35 143.13 438.45 130.78 434.22 C 122.67 433.67 114.52 434.36 106.41 433.73 C 99.58 427.73 93.61 420.82 87.58 414.03 C 90.78 410.19 92.79 409.72 96.04 406.06 Z" fill="#f1f1e9" opacity="1.00" stroke="#f1f1e9" stroke-width="0.25"/>
<path d="M 374.13 411.10 C 374.84 410.25 375.55 409.40 376.28 408.56 C 378.27 412.44 379.54 416.65 380.51 420.90 C 377.12 422.21 376.40 413.74 374.13 411.10 Z" fill="#b5a874" opacity="1.00" stroke="#b5a874" stroke-width="0.25"/>
<path d="M 353.66 434.16 C 367.53 433.85 381.42 433.81 395.29 434.36 C 391.28 434.79 387.25 435.06 383.24 435.26 C 373.39 434.54 363.44 435.79 353.66 434.16 Z" fill="#555761" opacity="1.00" stroke="#555761" stroke-width="0.25"/>
<path d="M 166.23 438.61 C 194.42 439.07 222.77 436.41 251.00 438.96 C 293.62 437.63 336.33 438.05 379.02 438.07 L 378.99 439.01 C 363.23 439.38 347.40 438.18 331.68 439.62 C 275.05 440.27 218.31 440.20 161.68 439.68 C 163.19 439.29 164.70 438.92 166.23 438.61 Z" fill="#3b4552" opacity="1.00" stroke="#3b4552" stroke-width="0.25"/>
<path d="M 104.72 439.57 C 121.12 438.31 137.84 438.69 154.26 439.75 C 137.77 439.92 121.17 440.58 104.72 439.57 Z" fill="#1c212b" opacity="1.00" stroke="#1c212b" stroke-width="0.25"/>
<path d="M 331.68 439.62 C 347.40 438.18 363.23 439.38 378.99 439.01 C 388.66 439.02 398.34 438.98 408.02 439.01 C 407.76 439.26 407.25 439.76 407.00 440.01 C 387.66 440.01 368.33 439.97 349.00 440.01 C 343.22 440.05 337.44 440.10 331.68 439.62 Z" fill="#1c222c" opacity="1.00" stroke="#1c222c" stroke-width="0.25"/>
<path d="M 349.00 440.01 C 368.33 439.97 387.66 440.01 407.00 440.01 C 389.60 442.27 368.04 440.45 349.03 440.95 L 349.00 440.01 Z" fill="#e0e4e5" opacity="1.00" stroke="#e0e4e5" stroke-width="0.25"/>
<path d="M 297.33 447.32 C 304.99 446.28 313.84 454.12 311.31 462.15 C 310.07 471.14 297.99 476.24 290.99 470.00 C 281.46 464.66 286.93 447.89 297.33 447.32 Z" fill="#f0d464" opacity="1.00" stroke="#f0d464" stroke-width="0.25"/>
<path d="M 162.03 448.04 C 169.34 447.97 176.66 447.83 183.97 448.06 C 185.92 454.17 178.81 451.43 175.04 452.09 C 175.01 458.71 174.98 465.34 174.96 471.97 C 173.80 471.61 170.61 473.05 171.00 470.99 C 169.81 465.47 173.17 455.89 170.02 452.03 C 165.98 452.23 160.35 453.53 162.03 448.04 Z" fill="#363a41" opacity="1.00" stroke="#363a41" stroke-width="0.25"/>
<path d="M 190.03 448.03 C 195.08 446.42 194.08 451.07 194.13 454.82 C 197.67 458.09 205.69 457.48 206.06 463.18 C 205.97 464.39 205.97 465.60 206.06 466.82 C 205.66 476.15 187.34 472.31 190.12 465.15 C 194.46 467.70 204.07 472.22 201.90 462.25 C 195.05 460.54 186.87 457.13 190.03 448.03 Z" fill="#353a3e" opacity="1.00" stroke="#353a3e" stroke-width="0.25"/>
<path d="M 200.03 448.04 C 208.00 448.03 215.99 447.77 223.97 448.08 C 225.62 453.19 220.73 452.04 217.04 452.09 C 216.70 458.72 217.46 465.41 216.76 472.03 C 215.58 471.93 214.40 471.93 213.22 472.04 C 212.69 465.37 213.27 458.70 212.92 452.05 C 208.94 450.51 198.05 455.57 200.03 448.04 Z" fill="#404449" opacity="1.00" stroke="#404449" stroke-width="0.25"/>
<path d="M 229.07 448.03 C 230.37 447.94 231.66 447.94 232.96 448.03 C 232.96 456.00 233.23 463.99 232.93 471.97 C 231.63 472.04 230.33 472.05 229.04 471.97 C 229.03 463.99 228.77 456.00 229.07 448.03 Z" fill="#3e4248" opacity="1.00" stroke="#3e4248" stroke-width="0.25"/>
<path d="M 240.01 471.99 C 239.00 466.70 237.25 453.23 240.02 448.02 C 239.99 456.01 239.99 464.00 240.01 471.99 Z" fill="#d6d9dd" opacity="1.00" stroke="#d6d9dd" stroke-width="0.25"/>
<path d="M 240.02 448.02 C 241.33 447.94 242.65 447.95 243.96 448.03 C 244.16 454.67 243.85 461.34 244.03 468.00 C 245.88 470.62 252.41 468.28 255.99 469.02 C 255.99 469.77 255.98 471.25 255.98 471.99 C 250.65 471.98 245.33 472.01 240.01 471.99 C 239.99 464.00 239.99 456.01 240.02 448.02 Z" fill="#32383d" opacity="1.00" stroke="#32383d" stroke-width="0.25"/>
<path d="M 268.25 456.68 C 265.95 447.78 276.99 446.44 282.88 449.23 C 284.82 455.83 276.91 451.11 273.00 452.01 C 271.14 459.83 284.30 458.22 284.00 465.93 C 282.15 473.11 273.78 474.29 268.10 470.76 C 266.80 466.41 271.56 466.79 274.00 468.50 C 275.17 469.08 277.20 469.85 278.03 468.37 C 282.61 460.59 269.17 463.04 268.25 456.68 Z" fill="#363d41" opacity="1.00" stroke="#363d41" stroke-width="0.25"/>
<path d="M 321.12 450.09 C 321.52 446.77 325.27 447.81 327.85 448.08 C 330.65 454.29 332.47 460.91 334.57 467.39 C 336.21 471.17 335.39 472.72 332.09 472.05 C 330.81 465.59 321.90 466.62 316.75 467.66 L 315.90 467.88 C 317.61 461.94 320.19 456.25 321.12 450.09 Z" fill="#3d444a" opacity="1.00" stroke="#3d444a" stroke-width="0.25"/>
<path d="M 296.37 450.32 C 303.72 447.65 310.70 456.65 307.48 463.38 C 306.00 470.74 294.37 472.90 290.63 466.34 C 286.77 460.64 289.36 451.79 296.37 450.32 Z" fill="#fafaf6" opacity="1.00" stroke="#fafaf6" stroke-width="0.25"/>
<path d="M 170.02 452.03 C 173.17 455.89 169.81 465.47 171.00 470.99 C 168.77 466.57 170.30 458.21 170.02 452.03 Z" fill="#bdc0c6" opacity="1.00" stroke="#bdc0c6" stroke-width="0.25"/>
<path d="M 324.08 456.92 C 324.12 447.89 329.43 461.34 329.05 464.92 C 326.36 464.64 323.64 464.23 320.99 463.86 C 321.74 461.53 321.95 458.34 324.08 456.92 C 322.73 462.92 329.15 459.66 324.08 456.92 Z" fill="#f0f1f1" opacity="1.00" stroke="#f0f1f1" stroke-width="0.25"/>
<path d="M 324.08 456.92 C 322.73 462.92 329.15 459.66 324.08 456.92 Z" fill="#9e9ea2" opacity="1.00" stroke="#9e9ea2" stroke-width="0.25"/>
<path d="M 206.06 463.18 C 207.83 462.94 207.83 467.05 206.06 466.82 C 205.97 465.60 205.97 464.39 206.06 463.18 Z" fill="#a8aaab" opacity="1.00" stroke="#a8aaab" stroke-width="0.25"/>
<path d="M 316.75 467.66 C 321.90 466.62 330.81 465.59 332.09 472.05 C 331.30 471.98 329.71 471.86 328.92 471.79 C 331.78 465.93 320.24 469.29 316.75 467.66 Z" fill="#f0eaa6" opacity="1.00" stroke="#f0eaa6" stroke-width="0.25"/>
<path d="M 244.03 468.00 C 246.85 469.32 255.04 465.60 255.99 469.02 C 252.41 468.28 245.88 470.62 244.03 468.00 Z" fill="#c7cbce" opacity="1.00" stroke="#c7cbce" stroke-width="0.25"/>
<path d="M 274.00 468.50 C 275.33 467.51 276.67 467.47 278.03 468.37 C 277.20 469.85 275.17 469.08 274.00 468.50 Z" fill="#9fa7ab" opacity="1.00" stroke="#9fa7ab" stroke-width="0.25"/>
<path d="M 315.90 467.88 L 316.75 467.66 C 320.24 469.29 331.78 465.93 328.92 471.79 C 324.43 472.32 319.23 473.43 317.63 478.29 C 316.65 477.60 315.69 476.90 314.75 476.18 C 313.81 473.49 314.71 470.39 315.90 467.88 Z" fill="#f0d342" opacity="1.00" stroke="#f0d342" stroke-width="0.25"/>
<path d="M 339.99 470.01 C 346.19 465.04 347.23 475.66 342.93 476.00 C 340.07 476.76 338.24 472.06 339.99 470.01 Z" fill="#2a2c2e" opacity="1.00" stroke="#2a2c2e" stroke-width="0.25"/>
<path d="M 213.22 472.04 C 214.40 471.93 215.58 471.93 216.76 472.03 C 217.08 473.82 212.92 473.82 213.22 472.04 Z" fill="#a8abac" opacity="1.00" stroke="#a8abac" stroke-width="0.25"/>
<path d="M 240.01 471.99 C 245.33 472.01 250.65 471.98 255.98 471.99 C 253.79 473.22 242.14 474.50 240.01 471.99 Z" fill="#676a6e" opacity="1.00" stroke="#676a6e" stroke-width="0.25"/>
<path d="M 284.99 481.47 C 295.05 480.60 304.92 478.12 314.75 476.18 C 315.69 476.90 316.65 477.60 317.63 478.29 C 318.68 479.81 317.76 481.74 315.94 481.95 C 306.05 484.37 295.98 486.21 285.84 487.00 C 284.53 486.78 283.17 486.89 282.00 487.55 C 280.03 488.30 277.86 488.00 275.81 488.00 C 273.45 487.58 271.20 487.73 269.04 488.47 C 259.44 489.20 249.52 489.55 239.90 488.56 C 237.68 487.85 235.46 487.65 233.23 487.97 C 231.16 488.06 228.97 488.30 227.00 487.55 C 225.82 486.89 224.47 486.78 223.16 487.00 C 212.39 486.72 201.61 484.76 191.31 481.63 C 188.69 480.98 191.52 478.40 192.20 477.07 C 203.17 478.13 214.09 480.02 225.00 481.47 C 226.18 482.08 227.52 482.22 228.83 482.00 C 231.63 481.64 234.38 481.81 237.08 482.49 C 238.51 482.63 241.38 482.93 242.81 483.07 C 251.26 483.00 259.73 482.80 268.19 483.08 C 269.62 482.94 272.48 482.64 273.91 482.49 C 275.72 482.37 279.35 482.12 281.17 482.00 C 282.47 482.21 283.81 482.08 284.99 481.47 Z" fill="#32393f" opacity="1.00" stroke="#32393f" stroke-width="0.25"/>
<path d="M 225.00 481.47 C 225.83 480.36 228.99 480.16 228.83 482.00 C 227.52 482.22 226.18 482.08 225.00 481.47 Z" fill="#a8acaf" opacity="1.00" stroke="#a8acaf" stroke-width="0.25"/>
<path d="M 281.17 482.00 C 281.00 480.16 284.16 480.35 284.99 481.47 C 283.81 482.08 282.47 482.21 281.17 482.00 Z" fill="#a5abae" opacity="1.00" stroke="#a5abae" stroke-width="0.25"/>
<path d="M 237.08 482.49 C 238.46 481.29 242.49 480.80 242.81 483.07 C 241.38 482.93 238.51 482.63 237.08 482.49 Z" fill="#b1b5b8" opacity="1.00" stroke="#b1b5b8" stroke-width="0.25"/>
<path d="M 268.19 483.08 C 268.48 480.80 272.53 481.28 273.91 482.49 C 272.48 482.64 269.62 482.94 268.19 483.08 Z" fill="#959ba0" opacity="1.00" stroke="#959ba0" stroke-width="0.25"/>
<path d="M 223.16 487.00 C 224.47 486.78 225.82 486.89 227.00 487.55 C 226.14 488.62 223.01 488.82 223.16 487.00 Z" fill="#979da2" opacity="1.00" stroke="#979da2" stroke-width="0.25"/>
<path d="M 282.00 487.55 C 283.17 486.89 284.53 486.78 285.84 487.00 C 285.99 488.82 282.85 488.62 282.00 487.55 Z" fill="#909397" opacity="1.00" stroke="#909397" stroke-width="0.25"/>
<path d="M 233.23 487.97 C 235.46 487.65 237.68 487.85 239.90 488.56 C 238.13 489.47 233.93 490.26 233.23 487.97 Z" fill="#a2a8ac" opacity="1.00" stroke="#a2a8ac" stroke-width="0.25"/>
<path d="M 269.04 488.47 C 271.20 487.73 273.45 487.58 275.81 488.00 C 274.89 490.13 270.82 489.50 269.04 488.47 Z" fill="#9ea3a5" opacity="1.00" stroke="#9ea3a5" stroke-width="0.25"/>
</svg>