<?xml version="1.0" encoding="utf-8"?>
<svg xmlns="http://www.w3.org/2000/svg" height="1024pt" version="1.1" viewBox="0 0 1024 1024" width="1024pt">
<path d="M 0.00 0.00 L 1024.00 0.00 L 1024.00 1024.00 L 0.00 1024.00 L 0.00 0.00 Z" fill="#0d0d0d" opacity="1.00" stroke="#0d0d0d" stroke-width="0.25"/>
<path d="M 528.07 101.38 C 537.48 99.64 547.28 100.26 556.54 102.63 C 559.75 103.56 563.05 105.01 565.08 107.80 C 567.26 111.26 567.67 115.56 569.98 118.96 C 571.45 120.59 573.29 121.82 574.96 123.24 C 572.18 122.40 568.70 121.78 567.43 118.78 C 565.21 114.42 564.55 108.47 559.57 106.23 C 550.36 102.11 539.94 101.90 530.08 103.05 C 513.85 106.27 498.54 112.82 483.30 119.07 C 465.07 126.03 447.56 134.78 430.72 144.61 C 422.77 149.24 414.47 153.44 407.46 159.46 C 404.31 162.13 400.93 164.50 397.68 167.05 C 397.58 166.58 397.39 165.65 397.30 165.19 C 401.81 161.41 406.11 157.38 410.89 153.94 C 418.54 148.28 427.05 143.97 435.28 139.25 C 440.85 136.09 446.43 132.91 452.24 130.20 C 458.27 127.35 463.94 123.74 470.23 121.45 C 489.25 114.08 508.04 105.67 528.07 101.38 Z" fill="#9f9f9f" opacity="1.00" stroke="#9f9f9f" stroke-width="0.25"/>
<path d="M 646.15 118.02 C 656.85 122.64 667.09 128.47 675.89 136.16 C 683.79 142.55 690.67 150.05 698.44 156.59 C 706.67 164.67 715.02 172.69 722.28 181.69 C 733.72 195.63 745.84 209.09 755.81 224.17 C 760.64 231.45 764.69 239.22 769.58 246.46 C 773.56 252.23 776.88 258.42 780.27 264.55 C 784.74 272.61 787.37 281.54 789.28 290.51 C 789.70 292.54 789.38 294.61 789.21 296.65 C 784.33 287.89 784.57 277.06 778.48 268.86 C 778.51 272.05 779.44 275.12 779.89 278.25 C 775.80 272.72 772.72 266.55 769.05 260.74 C 766.04 255.45 763.98 249.59 760.15 244.78 C 752.58 235.04 741.78 228.56 733.71 219.29 C 726.49 212.50 720.06 204.91 712.58 198.40 C 701.51 187.42 689.64 177.31 677.93 167.05 C 670.68 160.60 662.58 155.04 655.99 147.88 C 664.57 153.45 672.85 159.51 680.67 166.11 C 680.82 161.02 675.71 158.17 673.75 153.89 C 678.64 157.38 682.63 161.92 686.96 166.05 C 698.23 177.47 711.17 187.12 722.06 198.95 C 727.91 204.34 732.60 211.03 739.28 215.47 C 737.55 211.53 734.57 208.40 731.83 205.16 C 725.77 198.25 719.88 191.19 713.83 184.27 C 710.30 180.25 708.46 175.08 704.86 171.13 C 692.09 157.89 681.23 142.61 666.19 131.71 C 659.84 126.68 653.03 122.28 646.15 118.02 Z" fill="#9f9f9f" opacity="1.00" stroke="#9f9f9f" stroke-width="0.25"/>
<path d="M 465.72 137.87 C 473.34 136.90 481.09 137.40 488.75 137.49 C 512.40 141.11 535.87 146.21 558.73 153.32 C 564.51 154.87 570.30 157.08 576.39 156.53 C 594.96 155.74 613.51 158.23 631.59 162.32 C 626.25 166.07 619.92 163.02 614.01 163.48 C 607.14 163.73 600.19 162.88 593.37 164.03 C 611.14 165.85 628.92 168.88 645.92 174.47 C 653.69 177.43 661.48 180.37 669.13 183.64 C 653.49 178.03 637.52 173.21 621.19 170.07 C 616.85 169.18 612.47 168.32 608.02 168.41 C 601.61 168.43 595.35 166.66 588.96 166.47 C 584.52 166.76 580.07 166.62 575.63 166.44 C 577.12 167.89 578.67 169.29 580.19 170.72 C 569.72 169.69 559.41 167.51 548.99 166.11 C 536.77 164.41 524.87 161.04 512.93 158.01 C 498.52 153.81 483.75 150.08 470.50 142.85 C 481.52 144.07 492.34 146.56 503.12 149.10 C 517.83 151.82 532.72 153.44 547.47 156.00 C 550.67 156.58 553.94 156.46 557.18 156.50 C 534.66 150.02 511.26 147.60 488.47 142.33 C 480.97 140.37 473.14 140.11 465.72 137.87 Z" fill="#9f9f9f" opacity="1.00" stroke="#9f9f9f" stroke-width="0.25"/>
<path d="M 457.05 146.38 C 463.55 146.85 469.36 150.13 475.70 151.34 C 486.43 153.45 496.79 157.03 507.40 159.66 C 518.38 162.46 529.26 165.66 540.02 169.20 C 543.41 170.42 547.06 171.67 549.47 174.51 C 549.68 175.85 549.57 177.62 547.89 177.83 C 542.71 179.50 536.99 178.66 531.98 176.77 C 512.74 170.10 493.82 162.54 475.05 154.67 C 469.01 152.01 462.43 150.35 457.05 146.38 Z" fill="#9f9f9f" opacity="1.00" stroke="#9f9f9f" stroke-width="0.25"/>
<path d="M 486.94 165.32 C 492.95 166.78 498.99 168.24 504.73 170.60 C 514.46 174.68 524.29 178.84 532.78 185.23 C 536.10 187.51 538.88 190.52 542.27 192.69 C 544.58 192.94 546.90 192.42 549.12 191.79 C 558.95 188.77 568.88 186.03 578.47 182.29 C 575.70 186.13 572.66 189.91 568.61 192.47 C 560.85 197.63 551.47 199.15 543.00 202.75 C 532.64 206.49 522.29 210.24 511.82 213.67 C 506.98 215.25 502.19 217.33 497.04 217.58 C 501.08 214.18 506.30 212.94 511.11 211.05 C 516.69 208.91 522.49 207.25 527.80 204.46 C 519.32 206.20 511.19 209.29 503.03 212.12 C 493.71 215.35 485.09 220.59 475.35 222.55 C 479.66 217.27 486.52 215.48 492.31 212.38 C 505.64 205.59 520.15 201.56 533.58 195.01 C 518.81 183.94 501.91 176.10 486.94 165.32 Z" fill="#9f9f9f" opacity="1.00" stroke="#9f9f9f" stroke-width="0.25"/>
<path d="M 532.83 171.47 C 537.99 171.09 543.43 172.17 547.27 175.88 C 546.25 176.53 545.23 177.18 544.22 177.83 C 540.44 175.63 535.72 175.02 532.83 171.47 Z" fill="#0d0d0d" opacity="1.00" stroke="#0d0d0d" stroke-width="0.25"/>
<path d="M 596.78 187.56 C 607.30 192.62 617.45 198.47 628.36 202.71 C 634.02 204.95 639.76 206.97 645.51 208.99 C 650.51 210.84 655.36 207.27 660.42 207.49 C 666.49 207.68 672.40 209.45 678.32 210.69 C 673.82 210.82 669.38 210.12 664.94 209.63 C 660.39 210.15 655.84 210.68 651.25 210.86 C 659.05 215.60 668.24 217.34 676.71 220.58 C 685.95 223.23 693.30 229.61 701.06 234.96 C 707.64 239.32 713.22 244.95 719.64 249.49 C 718.96 247.46 718.22 245.47 717.46 243.48 C 720.32 246.30 723.20 249.11 725.73 252.25 C 730.96 259.13 738.61 263.45 745.13 268.94 C 748.05 271.58 751.86 272.70 755.48 274.01 C 759.36 275.37 762.60 277.96 766.10 280.04 C 772.65 284.00 779.31 288.11 784.46 293.87 C 777.95 291.84 773.33 286.52 767.39 283.43 C 762.83 281.05 758.26 278.66 753.97 275.80 C 749.69 272.91 744.77 271.22 740.40 268.49 C 736.96 266.47 733.82 263.94 730.11 262.42 C 731.57 265.63 733.94 268.30 736.71 270.45 C 740.04 273.01 742.66 276.31 745.02 279.76 C 741.64 275.86 738.24 271.90 733.88 269.06 C 726.90 264.26 720.47 258.48 712.62 255.11 C 702.52 250.37 692.58 245.29 682.60 240.31 C 669.38 233.34 656.22 225.68 641.54 222.22 C 638.44 221.31 635.54 219.84 632.62 218.51 C 637.07 218.08 641.52 218.78 645.62 220.59 C 655.29 224.71 665.56 227.34 674.97 232.08 C 683.95 237.28 693.26 242.12 703.21 245.21 C 685.14 229.94 661.96 223.23 640.36 214.64 C 630.31 211.43 621.09 206.20 612.01 200.93 C 606.36 197.24 600.37 193.46 596.78 187.56 Z" fill="#9f9f9f" opacity="1.00" stroke="#9f9f9f" stroke-width="0.25"/>
<path d="M 332.32 195.52 C 334.21 194.27 336.41 193.59 338.68 193.54 C 338.59 194.14 338.40 195.33 338.31 195.93 C 324.10 201.92 311.08 210.36 297.49 217.60 C 308.28 209.02 320.62 202.73 332.32 195.52 Z" fill="#9f9f9f" opacity="1.00" stroke="#9f9f9f" stroke-width="0.25"/>
<path d="M 587.71 210.85 C 593.09 209.88 598.48 208.26 604.01 208.74 C 601.56 210.41 598.77 211.46 595.87 212.01 C 587.33 213.74 579.16 216.90 570.63 218.68 C 560.36 220.84 550.09 223.04 540.04 226.09 C 509.16 233.59 478.55 242.60 449.34 255.20 C 430.24 263.11 411.97 273.06 395.22 285.20 C 392.40 287.21 389.50 289.15 386.29 290.49 C 388.01 288.16 390.17 286.22 392.53 284.57 C 408.95 272.71 426.40 262.24 445.01 254.20 C 457.55 248.47 470.17 242.79 483.47 239.05 C 517.36 226.72 552.73 219.33 587.71 210.85 Z" fill="#9f9f9f" opacity="1.00" stroke="#9f9f9f" stroke-width="0.25"/>
<path d="M 592.33 222.34 C 597.65 221.00 602.63 217.61 608.35 218.52 C 605.30 221.18 601.79 223.20 598.50 225.52 C 588.54 232.99 576.58 237.06 564.86 240.86 C 553.66 244.17 542.14 246.28 530.95 249.63 C 523.23 251.95 515.26 253.56 507.83 256.74 C 503.27 258.63 499.74 262.15 495.77 264.96 C 497.59 261.89 499.92 259.17 502.21 256.44 C 494.27 256.15 486.77 259.09 479.16 260.83 C 459.89 266.13 440.69 271.94 422.44 280.17 C 410.18 285.71 397.68 290.90 386.28 298.11 C 382.82 300.23 379.30 302.32 375.42 303.58 C 381.61 297.35 389.91 293.95 397.33 289.47 C 419.64 277.81 443.17 268.47 467.43 261.73 C 480.30 257.08 494.24 256.28 506.89 250.96 C 524.31 243.98 541.61 236.46 559.90 232.02 C 570.88 229.38 581.47 225.42 592.33 222.34 Z" fill="#9f9f9f" opacity="1.00" stroke="#9f9f9f" stroke-width="0.25"/>
<path d="M 616.68 224.88 C 625.08 223.77 633.39 226.48 641.82 225.46 C 641.11 228.15 640.81 231.02 639.44 233.48 C 636.97 236.59 633.35 238.47 630.34 240.99 C 633.95 241.79 637.56 242.57 641.19 243.28 C 632.45 243.64 623.66 242.81 614.98 244.10 C 608.27 244.69 601.45 244.31 594.87 245.94 C 584.46 248.65 575.04 254.03 564.98 257.69 C 554.48 261.93 543.31 264.06 532.44 267.06 C 514.30 272.11 495.68 275.09 477.11 277.93 C 469.75 279.75 462.19 280.37 454.79 281.88 C 444.53 285.18 434.28 288.96 425.12 294.74 C 437.05 282.83 454.08 278.61 470.11 275.49 C 483.02 273.39 495.79 270.34 508.82 268.99 C 525.03 266.63 540.87 262.21 556.54 257.51 C 560.80 255.86 565.69 255.22 569.17 252.03 C 570.85 252.26 572.55 252.40 574.26 252.50 C 573.15 251.63 572.05 250.78 570.96 249.93 C 576.85 249.57 583.57 249.35 587.87 244.66 C 580.12 243.15 572.52 246.14 564.79 245.27 C 574.08 244.09 583.34 242.51 592.39 240.08 C 598.34 238.43 604.66 238.86 610.54 236.87 C 606.20 236.40 601.85 236.08 597.56 235.29 C 606.60 229.54 617.88 231.23 627.77 228.06 C 624.38 226.08 620.51 225.42 616.68 224.88 Z" fill="#9f9f9f" opacity="1.00" stroke="#9f9f9f" stroke-width="0.25"/>
<path d="M 603.29 248.80 C 610.20 248.54 617.08 247.93 623.98 247.56 C 639.39 248.67 654.70 250.91 669.99 253.09 C 673.50 253.50 677.06 253.79 680.45 254.91 C 676.78 254.70 673.12 254.44 669.45 254.69 C 674.73 258.12 680.25 261.38 686.16 263.56 C 689.55 263.31 692.40 260.99 695.75 260.42 C 699.22 262.85 701.95 266.21 705.57 268.48 C 710.34 271.58 714.07 275.95 717.29 280.59 C 713.73 284.29 710.52 288.30 706.71 291.75 C 702.22 296.18 697.19 300.15 693.70 305.48 C 700.31 307.19 705.82 311.18 711.22 315.16 C 711.31 312.76 711.40 310.36 711.54 307.96 C 710.13 307.41 708.74 306.85 707.36 306.29 C 711.92 300.57 716.87 295.15 722.15 290.08 C 723.29 289.19 724.74 287.39 726.24 288.70 C 728.88 294.45 730.25 300.68 732.80 306.47 C 736.02 315.52 739.85 324.46 741.48 333.97 C 744.03 345.70 740.39 357.48 738.46 369.01 C 737.69 374.61 736.36 380.11 735.30 385.66 C 733.84 393.15 735.59 400.87 733.99 408.34 C 733.29 411.77 732.81 415.26 731.69 418.58 C 730.00 412.10 733.27 405.70 732.04 399.21 C 729.91 403.98 729.38 409.41 726.28 413.75 C 721.17 410.61 715.43 408.71 710.30 405.63 C 707.51 404.25 704.59 401.94 701.32 403.04 C 689.13 404.84 676.93 407.73 665.85 413.27 C 669.42 413.60 673.02 413.74 676.61 413.51 C 680.55 412.88 684.14 410.99 687.91 409.77 C 693.17 412.56 698.76 414.84 703.82 418.00 C 707.21 421.74 712.46 423.34 715.25 427.69 C 718.18 431.64 718.31 436.77 720.70 441.00 C 718.67 446.77 714.82 451.67 712.20 457.16 C 708.72 464.37 704.59 471.88 705.20 480.16 C 699.48 477.40 693.51 474.63 689.36 469.64 C 684.92 464.26 679.66 459.69 674.53 455.01 C 672.65 459.27 674.40 463.75 674.94 468.10 C 675.68 473.58 676.89 479.03 676.78 484.60 C 673.53 479.27 671.24 473.41 667.88 468.14 C 663.63 461.36 660.46 453.40 661.63 445.27 C 662.75 442.25 665.26 439.89 665.87 436.64 C 660.82 440.13 657.04 445.44 654.74 451.02 C 657.07 457.72 660.28 464.10 663.65 470.34 C 669.54 479.39 675.83 488.52 678.63 499.10 C 679.73 502.90 681.35 506.53 683.37 509.94 C 684.57 502.23 680.70 495.25 678.73 488.06 C 679.34 484.70 684.02 484.73 686.21 486.48 C 694.89 492.17 704.09 497.02 712.63 502.91 C 711.44 500.76 710.15 498.51 707.97 497.25 C 702.17 494.01 696.34 490.82 690.52 487.63 C 687.85 486.31 686.06 483.82 684.96 481.12 C 689.68 482.53 694.20 484.84 699.19 485.25 C 701.27 485.40 703.38 485.15 705.46 485.44 C 708.29 489.16 709.62 493.78 712.38 497.57 C 719.35 507.44 723.01 519.17 729.94 529.06 C 736.20 538.35 743.25 547.97 744.38 559.47 C 745.87 569.07 736.01 577.72 726.79 576.65 C 730.81 573.03 735.51 570.12 739.02 565.96 C 740.47 563.78 741.72 560.45 739.61 558.26 C 738.30 556.13 735.69 555.65 733.50 554.93 C 727.07 553.25 720.32 553.33 713.91 551.54 C 708.42 550.37 703.48 547.37 697.93 546.51 C 694.00 545.98 690.82 548.75 687.87 550.90 C 691.52 549.91 695.06 548.09 698.94 548.39 C 702.70 548.29 706.05 550.30 709.14 552.22 C 704.03 552.78 698.45 552.05 693.95 555.06 C 690.12 557.62 690.32 562.77 689.10 566.74 C 690.71 565.23 692.32 563.71 693.96 562.22 C 693.23 560.46 692.64 558.65 692.07 556.85 C 703.39 553.27 715.32 554.56 726.98 554.55 C 731.27 554.83 735.66 556.35 738.82 559.36 C 738.92 559.77 739.11 560.59 739.21 561.00 C 738.36 564.39 735.02 566.33 732.34 568.23 C 727.24 571.20 722.25 574.60 716.54 576.27 C 711.27 576.95 705.93 576.61 700.64 576.63 C 701.32 577.55 702.01 578.48 702.70 579.42 C 705.26 579.66 707.81 580.00 710.37 580.39 C 706.15 581.62 701.11 584.77 701.30 589.71 C 702.11 594.69 704.91 599.12 707.72 603.23 C 711.32 608.15 717.16 610.80 720.70 615.82 C 716.99 624.93 708.97 632.46 699.32 634.78 C 694.64 636.09 689.64 634.98 685.01 636.55 C 690.25 641.11 695.99 646.07 697.49 653.21 C 699.77 660.80 694.78 669.95 686.71 671.22 C 679.91 671.79 672.91 671.87 666.43 674.26 C 662.64 676.41 659.43 680.18 658.93 684.64 C 657.96 690.98 659.16 697.47 658.06 703.80 C 655.93 713.57 647.34 719.79 640.25 726.03 C 639.20 725.61 638.17 725.20 637.14 724.80 C 631.32 728.35 624.33 727.88 617.82 727.31 C 601.74 725.01 588.13 715.16 576.09 704.87 C 566.01 695.63 557.01 685.27 548.51 674.58 C 535.75 660.24 526.70 643.19 515.65 627.60 C 510.90 621.01 508.05 613.31 503.36 606.70 C 500.53 602.62 498.16 598.26 496.02 593.80 C 495.09 594.85 494.18 595.91 493.28 596.98 C 493.66 591.80 493.06 586.55 494.36 581.47 C 495.01 579.67 493.39 578.45 492.43 577.19 C 493.11 574.43 493.88 571.70 494.62 568.96 C 493.28 569.61 491.94 570.30 490.61 570.98 C 491.77 566.82 495.39 562.54 493.15 558.15 C 489.98 563.87 488.31 570.24 485.79 576.25 C 483.46 569.08 485.06 561.50 484.39 554.15 C 483.79 550.42 480.36 546.98 482.09 543.11 C 482.97 540.24 484.60 537.70 486.18 535.18 C 494.50 522.04 501.97 508.40 510.14 495.17 C 512.94 490.57 515.11 485.61 518.15 481.16 C 523.92 472.87 528.07 463.62 532.61 454.63 C 535.90 448.09 538.53 441.02 543.57 435.56 C 545.29 433.50 548.03 433.01 550.50 432.40 C 563.70 429.75 575.41 422.68 588.25 418.88 C 590.70 426.47 594.06 433.89 599.11 440.13 C 596.74 433.50 593.39 427.32 591.31 420.59 C 596.17 415.84 602.67 413.27 607.44 408.42 C 612.25 403.49 618.52 400.29 623.16 395.17 C 630.00 387.65 638.97 382.30 644.90 373.92 C 648.18 369.33 652.63 365.83 657.18 362.57 C 655.46 362.53 653.75 362.50 652.05 362.45 C 657.26 355.12 666.70 354.34 674.50 351.47 C 685.85 348.25 697.15 343.90 706.46 336.48 C 709.95 333.53 712.98 329.90 714.70 325.63 C 714.32 325.21 713.54 324.38 713.16 323.97 C 708.87 327.36 705.43 331.71 700.98 334.92 C 691.49 341.91 680.48 347.14 668.80 349.01 C 672.44 346.23 676.15 342.57 681.18 343.50 C 680.05 342.99 678.93 342.50 677.81 342.02 C 687.70 337.97 696.21 331.28 704.89 325.17 C 704.54 324.50 703.85 323.17 703.50 322.50 C 699.19 321.03 694.82 318.79 690.14 319.54 C 685.49 320.89 681.46 323.70 677.21 325.93 C 670.11 329.99 662.45 332.93 654.81 335.75 C 665.25 330.88 675.60 325.62 684.72 318.49 C 683.81 318.22 681.97 317.68 681.06 317.41 C 675.83 319.34 671.60 323.60 665.94 324.39 C 646.00 327.41 626.24 332.41 605.99 332.61 C 593.39 334.40 580.54 333.57 567.91 332.57 C 560.84 332.78 554.04 330.15 546.96 330.50 C 541.87 330.76 536.88 329.74 531.88 328.98 C 526.77 328.11 521.53 328.96 516.43 327.97 C 525.43 327.54 534.33 326.08 543.20 324.55 C 553.41 322.76 563.96 322.91 573.96 319.91 C 570.30 317.59 565.90 319.10 561.96 318.05 C 555.61 315.22 549.23 311.96 544.62 306.59 C 553.58 306.34 563.06 307.49 571.53 303.97 C 565.33 300.74 558.27 301.82 551.58 301.22 C 564.76 297.48 578.53 298.96 592.04 298.51 C 605.21 297.21 616.43 289.05 629.48 287.23 C 635.67 285.86 642.02 286.93 648.27 286.25 C 642.74 283.75 636.98 281.77 631.21 279.90 C 625.88 278.96 620.12 278.79 615.06 280.98 C 619.91 283.20 625.26 282.35 630.41 282.63 C 626.60 283.74 622.76 284.77 618.90 285.68 C 612.76 287.36 606.28 285.55 600.15 287.31 C 592.69 289.30 584.88 289.10 577.34 290.63 C 561.53 293.54 545.53 295.27 529.80 298.61 C 534.85 295.74 540.42 294.03 546.12 293.07 C 557.80 290.01 569.64 287.59 581.34 284.62 C 574.16 284.04 567.18 286.30 560.04 286.44 C 563.93 282.36 570.08 281.99 573.99 277.99 C 577.66 274.25 583.25 273.39 586.85 269.56 C 583.73 269.04 580.91 270.46 578.21 271.79 C 578.27 271.23 578.39 270.11 578.45 269.55 C 588.98 264.56 600.37 261.44 612.00 260.50 C 625.59 258.56 639.35 259.61 653.03 259.37 C 661.60 258.90 669.61 262.79 678.16 262.84 C 674.35 261.33 670.80 259.27 667.02 257.75 C 664.97 257.84 662.98 258.43 660.96 258.72 C 661.54 257.69 662.13 256.67 662.73 255.66 C 654.56 254.07 646.12 254.44 638.03 252.30 C 631.48 250.46 624.62 252.04 617.98 250.97 C 613.08 250.17 607.84 251.22 603.29 248.80 Z" fill="#9f9f9f" opacity="1.00" stroke="#9f9f9f" stroke-width="0.25"/>
<path d="M 643.86 263.00 C 654.80 261.30 665.60 264.35 676.11 267.01 C 672.41 267.64 668.73 269.93 664.93 268.80 C 661.73 268.05 658.51 267.37 655.24 267.08 C 655.77 266.45 656.85 265.17 657.38 264.53 C 652.81 264.68 648.29 264.05 643.86 263.00 Z" fill="#0d0d0d" opacity="1.00" stroke="#0d0d0d" stroke-width="0.25"/>
<path d="M 638.01 269.74 C 647.49 267.86 657.56 268.23 666.46 272.32 C 657.23 273.21 648.10 271.58 638.90 271.35 C 638.68 270.94 638.23 270.14 638.01 269.74 Z" fill="#0d0d0d" opacity="1.00" stroke="#0d0d0d" stroke-width="0.25"/>
<path d="M 720.10 278.82 C 716.32 276.25 712.66 272.49 712.32 267.70 C 716.08 270.44 718.68 274.43 720.10 278.82 Z" fill="#9f9f9f" opacity="1.00" stroke="#9f9f9f" stroke-width="0.25"/>
<path d="M 599.53 274.79 C 605.84 272.76 612.23 270.40 618.96 270.51 C 622.91 270.60 627.72 269.63 630.16 273.59 C 624.37 276.07 618.37 272.03 612.59 274.22 C 609.37 274.77 607.11 277.44 604.06 278.31 C 597.29 278.70 590.49 278.55 583.72 278.32 C 588.91 276.82 594.27 276.03 599.53 274.79 Z" fill="#0d0d0d" opacity="1.00" stroke="#0d0d0d" stroke-width="0.25"/>
<path d="M 553.69 278.19 C 560.56 277.02 567.18 274.18 574.24 274.39 C 572.47 275.45 570.69 276.57 568.70 277.16 C 557.10 279.65 545.60 282.59 533.91 284.61 C 539.97 281.07 546.83 279.37 553.69 278.19 Z" fill="#9f9f9f" opacity="1.00" stroke="#9f9f9f" stroke-width="0.25"/>
<path d="M 660.73 278.63 C 664.55 277.17 668.68 277.18 672.69 277.69 C 669.18 280.37 664.70 279.52 660.73 278.63 Z" fill="#0d0d0d" opacity="1.00" stroke="#0d0d0d" stroke-width="0.25"/>
<path d="M 705.81 299.81 C 706.86 296.13 709.09 292.79 712.87 291.52 C 711.36 294.90 708.88 297.75 705.81 299.81 Z" fill="#9f9f9f" opacity="1.00" stroke="#9f9f9f" stroke-width="0.25"/>
<path d="M 620.77 298.16 C 626.71 296.01 633.09 294.59 639.37 296.16 C 646.77 297.02 652.87 301.60 659.77 303.97 C 659.34 304.46 658.92 304.95 658.51 305.44 C 645.58 305.77 632.98 302.00 620.77 298.16 Z" fill="#0d0d0d" opacity="1.00" stroke="#0d0d0d" stroke-width="0.25"/>
<path d="M 712.54 320.74 C 712.33 315.09 714.92 309.88 716.71 304.66 C 716.81 309.95 715.52 315.13 715.26 320.40 C 714.58 320.48 713.22 320.65 712.54 320.74 Z" fill="#0d0d0d" opacity="1.00" stroke="#0d0d0d" stroke-width="0.25"/>
<path d="M 336.84 331.85 C 345.99 322.77 356.48 315.21 365.96 306.51 C 366.61 306.88 367.92 307.62 368.57 307.99 C 361.94 313.53 354.86 318.68 349.31 325.38 C 338.81 337.49 328.24 350.29 323.60 365.94 C 321.11 374.24 319.87 382.88 318.67 391.44 C 317.78 410.62 316.31 429.98 319.23 449.07 C 319.67 454.37 319.43 459.70 320.06 464.99 C 320.49 468.96 319.73 473.05 320.85 476.94 C 320.53 476.58 320.27 476.17 319.99 475.80 C 319.73 471.84 319.68 467.85 318.81 463.96 C 317.54 457.06 320.13 449.40 316.08 443.12 C 315.09 451.73 315.96 460.45 314.69 469.04 C 314.47 479.06 313.80 489.05 313.19 499.05 C 311.70 509.65 312.53 520.40 312.33 531.07 C 311.97 536.20 314.03 541.06 314.38 546.13 C 313.12 539.09 310.40 532.25 310.55 525.01 C 310.51 516.98 310.32 508.95 310.67 500.94 C 311.80 491.62 312.55 482.25 312.54 472.85 C 313.80 459.94 314.01 446.96 314.74 434.01 C 316.22 423.73 314.88 413.30 316.11 403.00 C 316.47 399.36 316.28 395.70 316.61 392.07 C 318.76 377.00 321.27 361.44 329.47 348.29 C 332.65 342.11 337.94 337.33 340.97 331.09 C 336.62 333.58 333.51 337.61 330.23 341.29 C 320.88 351.79 312.32 363.00 304.83 374.90 C 301.79 379.79 299.96 385.30 297.20 390.34 C 297.31 385.66 299.42 381.41 301.67 377.43 C 306.51 368.91 311.93 360.69 318.16 353.12 C 324.11 345.79 330.06 338.43 336.84 331.85 Z" fill="#9f9f9f" opacity="1.00" stroke="#9f9f9f" stroke-width="0.25"/>
<path d="M 665.25 342.54 C 669.55 340.83 673.87 339.12 678.39 338.06 C 676.21 339.72 673.83 341.06 671.40 342.31 C 666.31 344.81 662.69 349.31 658.61 353.09 C 657.36 352.71 656.10 352.34 654.85 351.98 C 652.55 355.49 650.19 359.03 646.98 361.78 C 648.88 357.77 652.76 355.04 654.46 350.96 C 654.27 350.39 653.88 349.26 653.69 348.69 C 648.82 353.15 642.47 355.94 638.69 361.54 C 631.99 363.63 627.37 369.33 622.19 373.72 C 622.82 374.28 624.09 375.39 624.72 375.94 C 621.06 376.80 617.22 377.72 614.29 380.22 C 611.52 382.51 608.86 385.24 605.24 386.09 C 601.57 386.93 597.49 386.99 594.07 385.23 C 590.13 383.44 586.59 380.31 582.05 380.32 C 580.72 382.27 579.90 384.98 577.49 385.84 C 574.08 387.23 570.24 385.98 566.77 386.97 C 564.18 388.38 562.37 390.80 560.24 392.77 C 556.53 392.75 552.83 392.35 549.30 391.16 C 553.51 388.21 557.91 385.44 561.45 381.65 C 565.86 376.72 572.91 376.22 578.39 372.98 C 573.15 372.02 567.44 371.38 563.28 367.70 C 560.09 365.02 556.12 363.67 552.31 362.17 C 556.47 360.37 560.58 358.41 564.33 355.85 C 560.56 354.20 556.15 353.82 552.21 354.97 C 548.34 357.67 545.70 362.00 540.98 363.48 C 542.82 361.12 544.84 358.91 546.59 356.48 C 540.34 355.82 534.26 357.37 528.16 358.46 C 532.61 354.55 538.60 353.61 544.05 351.82 C 552.21 349.05 561.00 350.48 569.22 352.25 C 581.51 353.16 593.83 353.56 606.07 355.07 C 610.19 355.86 614.46 355.88 618.56 354.97 C 621.69 354.15 624.77 355.96 627.92 355.42 C 631.60 353.86 634.93 351.60 638.59 350.00 C 638.10 352.43 637.57 354.84 637.32 357.31 C 640.83 353.55 643.76 349.28 647.53 345.75 C 647.45 347.49 647.37 349.23 647.32 350.98 C 650.34 348.42 653.43 345.92 656.66 343.63 C 655.36 345.72 652.55 347.85 654.42 350.48 C 657.85 347.62 660.98 344.18 665.25 342.54 Z" fill="#9f9f9f" opacity="1.00" stroke="#9f9f9f" stroke-width="0.25"/>
<path d="M 442.04 358.93 C 444.50 355.14 447.95 350.87 453.01 351.36 C 457.80 350.57 461.51 354.25 464.12 357.75 C 468.09 363.13 471.60 369.17 477.37 372.85 C 479.62 374.79 482.48 372.92 484.98 372.63 C 495.42 371.08 505.25 366.23 515.96 366.47 C 525.28 366.04 534.61 366.85 543.71 368.97 C 548.79 370.26 554.00 369.00 559.03 368.12 C 547.96 372.10 536.31 374.10 524.81 376.40 C 512.31 378.09 499.70 379.26 487.35 381.98 C 484.89 382.38 482.92 383.96 481.07 385.53 C 486.26 392.00 488.86 399.96 492.50 407.30 C 495.02 412.48 497.08 417.87 498.84 423.34 C 497.51 422.24 496.21 421.11 494.92 419.98 C 494.09 421.01 493.26 422.04 492.44 423.08 C 489.14 420.24 485.86 417.30 483.39 413.69 C 478.73 406.96 474.00 400.24 470.07 393.04 C 465.93 385.36 460.71 378.33 456.43 370.73 C 455.09 368.61 453.05 365.73 450.15 366.59 C 447.81 367.77 445.78 369.46 443.65 370.98 C 452.15 380.13 460.01 389.93 466.46 400.64 C 468.16 403.05 469.38 406.76 472.89 406.78 C 476.73 412.77 480.70 418.69 483.98 425.02 C 485.68 428.31 487.73 431.40 489.99 434.33 C 490.65 433.24 491.31 432.16 491.97 431.07 C 497.79 433.05 500.70 438.71 502.94 444.01 C 504.39 442.53 505.60 440.63 507.54 439.73 C 511.44 438.64 515.48 438.10 519.44 437.27 C 520.59 439.15 521.76 441.03 522.96 442.90 C 527.90 440.85 532.79 438.71 537.78 436.79 C 528.60 457.27 515.91 475.89 505.79 495.89 C 500.73 504.46 495.57 512.98 490.90 521.78 C 488.01 527.04 485.89 532.88 481.52 537.17 C 481.40 533.53 481.99 529.94 482.53 526.37 C 481.23 526.37 479.94 526.37 478.65 526.37 C 476.00 536.68 474.64 547.33 474.33 557.96 C 473.98 560.78 472.92 563.44 472.03 566.12 C 470.92 553.14 472.14 540.09 471.39 527.09 C 469.67 529.06 468.07 531.11 466.37 533.09 C 464.89 528.13 465.99 522.99 466.36 517.97 C 466.67 508.37 469.49 499.11 471.49 489.78 C 474.64 479.81 477.21 469.65 480.81 459.83 C 481.31 460.37 481.80 460.92 482.31 461.48 C 482.11 457.93 484.27 455.02 485.39 451.82 C 486.23 446.15 484.40 440.62 483.30 435.13 C 482.40 435.88 481.50 436.64 480.61 437.40 C 476.30 427.45 470.87 418.03 465.33 408.72 C 461.66 402.62 458.79 396.08 455.06 390.02 C 451.32 384.05 448.81 377.28 443.80 372.17 C 441.44 375.59 438.84 379.04 437.96 383.19 C 436.97 388.28 437.94 393.53 437.07 398.65 C 436.56 401.50 436.41 404.40 436.03 407.28 C 435.40 402.22 435.61 397.10 435.41 392.02 C 435.22 387.36 435.78 382.63 437.68 378.33 C 439.60 373.08 444.01 369.40 447.81 365.52 C 441.13 364.40 434.90 367.85 430.15 372.23 C 431.98 373.68 433.92 375.01 435.92 376.22 C 433.88 376.45 431.52 376.43 430.49 378.56 C 424.92 386.95 424.17 397.32 422.69 407.01 C 422.23 415.52 422.33 424.22 424.64 432.48 C 427.64 440.19 434.69 445.13 439.74 451.41 C 437.22 445.82 432.87 440.98 432.06 434.72 C 435.68 438.09 438.00 442.76 442.39 445.31 C 441.42 441.11 439.72 437.14 437.96 433.22 C 439.49 434.88 441.04 436.51 442.72 438.03 C 442.41 435.62 441.91 433.24 441.39 430.87 C 443.56 433.80 445.69 436.83 448.57 439.13 C 447.98 435.42 447.10 431.76 446.49 428.05 C 448.90 430.35 451.26 432.71 453.70 434.99 C 453.63 433.20 453.55 431.42 453.48 429.65 C 456.01 432.99 458.77 436.16 461.88 438.99 C 461.78 434.22 458.04 430.84 455.92 426.88 C 460.56 431.29 464.53 436.36 468.18 441.61 C 468.94 440.76 469.70 439.91 470.48 439.08 C 472.47 441.60 473.97 444.49 473.77 447.78 C 474.86 447.18 475.95 446.59 477.06 446.02 C 472.05 462.16 464.95 477.60 460.19 493.84 C 458.59 491.09 456.79 488.47 455.04 485.82 C 453.94 487.10 452.88 488.43 451.67 489.62 C 448.95 488.86 446.72 487.05 444.32 485.65 C 445.18 488.73 445.95 491.85 446.27 495.05 C 446.16 500.79 451.89 503.80 454.83 508.08 C 451.77 505.84 448.93 503.34 446.00 500.96 C 445.15 501.95 444.33 502.96 443.51 503.96 C 443.31 501.64 443.58 499.05 441.84 497.23 C 436.57 489.50 427.23 486.59 420.82 480.10 C 415.15 474.65 407.69 471.27 402.69 465.13 C 407.88 467.88 412.46 471.63 417.47 474.69 C 426.91 480.61 435.41 487.84 443.58 495.38 C 443.50 493.83 443.89 492.19 443.27 490.73 C 441.06 485.73 437.77 481.33 434.50 476.99 C 434.78 474.75 434.99 472.37 433.88 470.31 C 428.16 458.00 418.05 448.47 411.45 436.70 C 407.79 430.42 408.29 422.97 408.73 416.00 C 410.59 406.49 414.05 397.40 417.57 388.40 C 420.54 380.76 425.29 373.86 431.19 368.20 C 434.60 364.85 439.50 363.16 442.04 358.93 Z" fill="#9f9f9f" opacity="1.00" stroke="#9f9f9f" stroke-width="0.25"/>
<path d="M 442.63 359.68 C 445.34 356.19 449.06 352.65 453.86 353.23 C 459.59 352.74 462.99 358.34 465.33 362.70 C 460.98 361.36 456.71 359.10 452.03 359.34 C 448.89 359.41 445.76 359.66 442.63 359.68 Z" fill="#0d0d0d" opacity="1.00" stroke="#0d0d0d" stroke-width="0.25"/>
<path d="M 559.54 360.97 C 563.15 360.41 566.84 360.36 570.45 360.98 C 574.72 361.77 579.13 361.11 583.38 362.12 C 590.54 363.69 597.59 365.96 604.92 366.58 C 606.91 366.73 608.78 367.44 610.65 368.09 C 607.04 368.66 603.34 368.62 599.80 367.69 C 591.63 365.72 583.06 366.18 574.99 363.73 C 569.97 362.11 564.78 361.34 559.54 360.97 Z" fill="#0d0d0d" opacity="1.00" stroke="#0d0d0d" stroke-width="0.25"/>
<path d="M 482.01 373.49 C 488.45 372.42 494.94 371.81 501.33 370.50 C 512.77 370.53 524.26 370.09 535.68 370.87 C 528.91 375.47 520.48 372.42 512.98 374.20 C 502.92 374.60 493.51 378.54 483.64 380.01 C 483.04 377.85 482.48 375.68 482.01 373.49 Z" fill="#0d0d0d" opacity="1.00" stroke="#0d0d0d" stroke-width="0.25"/>
<path d="M 623.92 380.83 C 628.27 377.11 632.59 373.35 637.00 369.70 C 634.23 374.77 630.46 380.84 623.92 380.83 Z" fill="#9f9f9f" opacity="1.00" stroke="#9f9f9f" stroke-width="0.25"/>
<path d="M 428.03 374.24 C 428.62 374.36 429.78 374.60 430.37 374.72 C 422.31 383.99 419.01 396.38 418.53 408.44 C 418.49 412.31 418.48 416.18 418.44 420.05 C 417.77 428.21 423.19 434.95 426.01 442.19 C 419.71 438.63 413.00 434.17 410.74 426.89 C 410.11 422.39 409.95 417.73 410.68 413.23 C 412.73 406.13 415.51 399.25 417.95 392.27 C 420.14 385.67 424.27 380.01 428.03 374.24 Z" fill="#0d0d0d" opacity="1.00" stroke="#0d0d0d" stroke-width="0.25"/>
<path d="M 615.42 386.33 C 618.66 383.95 622.93 384.98 626.52 383.50 C 622.40 387.74 618.34 392.21 613.10 395.11 C 608.22 397.78 603.17 400.24 597.80 401.76 C 603.82 396.78 608.83 390.62 615.42 386.33 Z" fill="#9f9f9f" opacity="1.00" stroke="#9f9f9f" stroke-width="0.25"/>
<path d="M 532.54 399.36 C 535.31 399.98 538.10 400.49 540.95 400.59 C 544.79 400.62 547.94 403.05 551.11 404.88 C 548.55 409.56 545.95 414.23 543.44 418.94 C 541.14 423.85 534.96 423.92 531.11 427.03 C 527.30 429.98 523.12 432.40 518.56 433.98 C 518.59 431.84 518.65 429.70 518.77 427.57 C 517.98 427.48 517.18 427.39 516.40 427.31 C 516.55 424.30 515.90 421.03 517.42 418.27 C 521.25 411.09 526.75 405.01 532.54 399.36 Z" fill="#9f9f9f" opacity="1.00" stroke="#9f9f9f" stroke-width="0.25"/>
<path d="M 569.14 416.08 C 568.16 412.32 567.72 407.43 570.84 404.56 C 575.28 404.35 579.73 404.66 584.18 404.50 C 584.77 406.06 585.38 407.62 585.99 409.18 C 579.93 410.28 574.70 413.64 569.14 416.08 Z" fill="#9f9f9f" opacity="1.00" stroke="#9f9f9f" stroke-width="0.25"/>
<path d="M 593.58 405.09 C 594.65 405.67 595.71 406.27 596.80 406.87 C 594.88 410.20 592.99 413.76 589.45 415.64 C 589.16 411.63 591.89 408.46 593.58 405.09 Z" fill="#9f9f9f" opacity="1.00" stroke="#9f9f9f" stroke-width="0.25"/>
<path d="M 556.03 420.75 C 560.11 418.00 562.24 413.39 565.35 409.73 C 565.77 414.02 565.57 418.32 565.63 422.62 C 561.12 424.14 556.46 425.20 552.11 427.13 C 549.98 428.09 547.69 428.59 545.37 428.82 C 548.80 425.96 552.36 423.29 556.03 420.75 Z" fill="#9f9f9f" opacity="1.00" stroke="#9f9f9f" stroke-width="0.25"/>
<path d="M 570.43 416.06 C 576.17 414.84 581.64 412.41 587.56 412.09 C 587.53 413.43 587.47 414.77 587.37 416.11 C 582.62 418.87 577.06 419.56 571.94 421.32 C 569.97 421.78 567.71 423.25 566.05 421.34 C 566.91 419.22 567.76 416.34 570.43 416.06 Z" fill="#9f9f9f" opacity="1.00" stroke="#9f9f9f" stroke-width="0.25"/>
<path d="M 382.28 466.74 C 389.14 468.68 395.68 471.69 401.71 475.48 C 412.93 482.75 424.29 489.91 434.45 498.64 C 438.88 502.54 443.79 506.06 447.14 511.02 C 443.39 508.79 440.10 505.91 436.70 503.20 C 428.77 497.11 420.73 491.17 412.65 485.27 C 403.13 478.20 393.28 471.32 382.28 466.74 Z" fill="#9f9f9f" opacity="1.00" stroke="#9f9f9f" stroke-width="0.25"/>
<path d="M 439.41 467.58 C 442.30 471.18 444.56 475.23 446.66 479.34 C 442.10 477.12 440.07 472.34 439.41 467.58 Z" fill="#0d0d0d" opacity="1.00" stroke="#0d0d0d" stroke-width="0.25"/>
<path d="M 385.80 500.99 C 391.72 499.08 398.48 501.95 402.21 506.74 C 406.80 512.83 410.22 519.77 412.58 527.02 C 413.87 530.95 415.81 534.92 415.16 539.18 C 413.54 533.62 412.13 527.97 409.88 522.61 C 409.28 520.91 407.88 519.73 406.68 518.49 C 405.65 525.18 408.33 531.56 409.02 538.14 C 410.20 549.66 413.46 560.82 414.80 572.32 C 415.97 577.44 415.91 582.69 415.61 587.90 C 422.15 602.70 426.94 618.67 426.49 635.01 C 426.37 642.56 426.76 650.13 426.24 657.68 C 423.33 678.09 419.35 698.34 416.91 718.82 C 415.65 729.90 413.52 740.87 412.49 751.97 C 412.42 758.46 414.35 764.84 413.45 771.38 C 412.54 768.03 411.85 764.63 410.93 761.30 C 409.78 763.92 408.84 766.63 407.89 769.34 C 407.52 762.19 406.66 755.05 404.78 748.14 C 403.98 745.40 402.00 743.10 401.67 740.21 C 401.22 736.92 400.75 733.63 399.84 730.44 C 397.58 737.13 396.24 744.14 393.29 750.60 C 386.32 765.72 376.39 779.36 370.49 794.99 C 367.89 801.67 368.03 808.96 368.41 816.00 C 369.99 823.48 374.98 829.66 380.56 834.65 C 373.90 830.34 368.31 823.77 366.70 815.85 C 365.94 808.15 366.36 800.18 369.39 792.96 C 376.02 776.63 386.02 761.93 393.01 745.76 C 395.68 739.19 398.15 732.15 397.19 724.95 C 396.64 721.29 396.44 717.59 395.69 713.98 C 394.97 710.25 392.58 706.99 392.47 703.12 C 391.86 695.65 391.02 688.20 389.83 680.80 C 389.47 676.12 389.47 671.22 386.83 667.11 C 386.00 676.64 386.69 686.22 387.45 695.73 C 387.21 704.03 389.41 712.27 388.12 720.56 C 386.17 712.96 385.20 705.15 383.62 697.47 C 381.97 689.11 383.01 680.59 382.16 672.18 C 377.86 681.27 380.05 691.32 380.88 700.86 C 382.63 710.17 383.46 719.63 385.51 728.89 C 386.28 732.28 386.96 735.69 387.41 739.15 C 384.60 731.60 381.81 723.94 380.68 715.93 C 379.95 706.58 377.99 697.34 378.34 687.93 C 376.90 681.35 375.66 674.71 375.41 667.96 C 373.66 655.17 371.87 642.38 371.04 629.49 C 370.06 616.33 368.62 603.19 367.63 590.02 C 367.30 582.01 368.15 573.90 366.45 566.00 C 365.38 561.08 365.72 556.04 365.40 551.06 C 363.78 546.70 358.58 544.45 358.05 539.55 C 360.89 541.41 363.51 543.59 366.09 545.81 C 364.62 538.41 358.80 532.50 358.29 524.92 C 362.04 529.24 364.96 534.23 367.44 539.37 C 371.61 550.93 380.91 559.55 386.49 570.35 C 387.86 573.02 389.07 575.79 390.50 578.45 C 391.06 569.98 385.96 562.64 382.93 555.08 C 380.76 549.38 376.26 545.25 372.19 540.92 C 375.91 543.16 379.19 546.01 382.69 548.58 C 381.47 538.72 378.82 528.99 379.28 518.98 C 379.01 512.60 379.42 504.40 385.80 500.99 Z" fill="#9f9f9f" opacity="1.00" stroke="#9f9f9f" stroke-width="0.25"/>
<path d="M 385.00 503.94 C 386.18 502.39 388.16 502.15 389.97 502.40 C 396.08 503.33 402.10 507.17 404.23 513.18 C 405.60 518.21 405.18 523.48 406.11 528.58 C 407.82 539.08 408.86 549.71 411.45 560.05 C 412.80 566.22 413.79 572.47 415.16 578.64 C 415.80 581.24 415.56 583.93 415.30 586.57 C 410.53 580.76 407.62 573.72 403.42 567.52 C 400.96 562.90 396.80 559.61 392.58 556.70 C 393.67 559.19 394.88 561.63 395.92 564.16 C 393.62 561.40 391.58 558.44 389.48 555.55 C 384.87 549.78 384.08 542.16 382.55 535.19 C 381.34 530.56 381.35 525.75 380.79 521.03 C 380.22 515.13 380.83 508.51 385.00 503.94 Z" fill="#0d0d0d" opacity="1.00" stroke="#0d0d0d" stroke-width="0.25"/>
<path d="M 573.97 537.55 C 576.67 551.69 571.14 565.54 564.57 577.77 C 560.87 584.39 557.82 591.34 554.63 598.22 C 554.69 597.23 554.70 596.25 554.95 595.30 C 560.05 580.83 569.36 567.94 572.28 552.70 C 572.71 547.63 572.72 542.52 573.97 537.55 Z" fill="#0d0d0d" opacity="1.00" stroke="#0d0d0d" stroke-width="0.25"/>
<path d="M 366.53 555.09 C 370.26 558.24 370.40 563.34 371.53 567.72 C 372.73 572.29 372.34 577.03 372.72 581.69 C 373.43 587.09 374.48 592.46 374.60 597.92 C 375.35 604.66 376.54 611.35 377.33 618.09 C 377.85 630.60 379.70 643.03 379.60 655.58 C 380.66 664.88 381.41 674.72 378.04 683.66 C 377.21 677.15 377.34 670.55 376.57 664.02 C 377.22 650.58 374.40 637.37 373.54 624.02 C 373.66 617.62 371.61 611.44 371.46 605.06 C 371.19 598.01 369.51 591.08 369.50 584.01 C 369.01 574.32 367.58 564.72 366.53 555.09 Z" fill="#0d0d0d" opacity="1.00" stroke="#0d0d0d" stroke-width="0.25"/>
<path d="M 697.52 562.50 C 702.09 564.16 706.78 565.64 711.06 567.98 C 712.58 568.70 712.93 570.46 713.42 571.93 C 712.27 573.94 709.87 573.37 707.95 573.40 C 704.61 573.36 701.43 572.17 698.47 570.74 C 702.41 570.01 706.40 570.65 710.37 570.73 C 705.80 568.46 701.46 565.75 697.52 562.50 Z" fill="#0d0d0d" opacity="1.00" stroke="#0d0d0d" stroke-width="0.25"/>
<path d="M 505.08 581.58 C 510.64 577.73 510.37 570.16 513.58 564.71 C 517.68 572.36 522.44 579.64 526.88 587.10 C 531.75 594.86 536.39 602.79 541.78 610.21 C 545.82 615.83 550.53 620.93 554.34 626.71 C 555.50 628.73 557.45 630.05 559.49 631.09 C 559.56 632.42 559.61 633.75 559.68 635.11 C 553.00 629.15 547.93 621.69 541.49 615.50 C 534.98 609.01 528.35 602.63 522.22 595.78 C 518.12 591.28 514.94 586.00 510.58 581.73 C 512.84 587.86 517.21 592.83 521.02 598.04 C 527.76 606.92 533.90 616.28 541.36 624.60 C 545.94 629.72 550.05 635.22 554.27 640.63 C 560.39 648.29 568.02 654.96 572.12 664.04 C 565.98 658.73 561.46 651.92 556.26 645.76 C 543.21 630.71 531.84 614.30 518.56 599.44 C 515.81 596.28 513.56 592.71 510.67 589.67 C 513.29 598.80 521.30 605.09 524.14 614.10 C 528.25 623.04 534.93 630.55 538.98 639.52 C 532.39 633.34 528.48 625.03 523.24 617.79 C 519.40 612.61 517.18 606.43 513.25 601.32 C 513.85 607.05 515.50 612.70 518.36 617.72 C 523.33 626.52 528.51 635.24 534.49 643.41 C 541.88 652.37 549.05 661.51 557.00 670.00 C 563.49 676.80 569.32 684.28 576.49 690.42 C 576.02 691.63 575.55 692.85 575.12 694.09 C 564.98 682.17 554.04 670.83 545.34 657.77 C 541.05 651.19 535.52 645.61 530.05 640.03 C 522.06 630.45 514.46 620.46 508.33 609.57 C 504.28 603.62 499.47 597.94 497.37 590.94 C 498.19 585.41 500.31 580.10 502.85 575.14 C 503.60 577.28 504.33 579.43 505.08 581.58 Z" fill="#0d0d0d" opacity="1.00" stroke="#0d0d0d" stroke-width="0.25"/>
<path d="M 376.67 572.15 C 379.90 576.98 380.73 582.82 381.67 588.43 C 384.12 602.60 386.04 616.88 386.70 631.25 C 387.71 640.43 387.99 649.76 387.16 658.96 C 384.61 654.50 385.90 649.28 385.34 644.43 C 384.63 639.08 384.20 633.64 382.52 628.49 C 382.30 633.04 383.63 637.48 383.46 642.04 C 383.36 648.91 384.02 655.83 383.09 662.66 C 382.11 658.51 382.67 654.19 382.00 650.00 C 381.09 643.65 382.02 637.20 381.24 630.84 C 379.13 620.42 378.82 609.74 376.68 599.32 C 376.00 592.63 373.83 586.00 374.82 579.23 C 378.36 586.84 377.38 595.47 379.34 603.48 C 380.55 592.91 377.06 582.60 376.67 572.15 Z" fill="#0d0d0d" opacity="1.00" stroke="#0d0d0d" stroke-width="0.25"/>
<path d="M 402.08 574.91 C 409.48 588.86 412.15 604.61 415.04 619.95 C 415.99 628.59 415.55 637.32 415.61 646.00 C 416.04 658.74 413.24 671.26 412.36 683.93 C 411.22 690.69 411.94 697.88 408.87 704.21 C 407.95 690.17 409.46 676.00 408.12 661.95 C 407.36 656.66 407.80 651.31 407.68 646.00 C 407.75 637.93 407.41 629.86 407.85 621.81 C 408.79 627.83 407.62 634.34 411.05 639.78 C 411.70 633.67 411.64 627.47 410.77 621.39 C 410.13 605.57 405.90 590.19 402.08 574.91 Z" fill="#0d0d0d" opacity="1.00" stroke="#0d0d0d" stroke-width="0.25"/>
<path d="M 696.56 581.66 C 697.98 581.55 699.40 581.45 700.83 581.37 C 698.88 584.67 697.44 588.26 696.99 592.10 C 696.66 588.63 696.52 585.14 696.56 581.66 Z" fill="#0d0d0d" opacity="1.00" stroke="#0d0d0d" stroke-width="0.25"/>
<path d="M 484.48 602.88 C 486.45 603.72 488.85 604.19 490.12 606.10 C 492.58 609.56 494.57 613.36 497.32 616.63 C 503.70 624.44 508.23 633.54 514.52 641.42 C 521.41 650.02 527.30 659.35 533.32 668.58 C 538.22 675.98 541.88 684.37 548.48 690.51 C 565.05 706.76 584.41 720.43 605.92 729.30 C 610.60 730.88 615.62 731.07 620.37 732.44 C 612.03 733.52 603.96 730.46 596.42 727.29 C 585.12 721.84 574.43 715.12 564.50 707.46 C 559.37 703.62 555.00 698.80 549.49 695.48 C 550.87 698.47 552.61 701.27 554.21 704.15 C 546.96 699.65 542.27 692.32 537.56 685.44 C 529.73 675.63 519.09 668.59 510.70 659.31 C 506.76 654.91 502.56 650.77 498.47 646.53 C 493.75 641.51 489.85 635.82 485.92 630.19 C 483.57 626.97 483.56 622.79 481.75 619.32 C 480.36 616.52 478.87 613.75 477.91 610.77 C 484.22 616.83 488.11 624.81 492.97 631.98 C 500.42 643.60 509.53 654.01 519.10 663.90 C 525.15 669.98 532.47 674.62 538.10 681.14 C 530.95 668.86 522.30 657.52 514.08 645.94 C 505.41 635.43 497.95 624.02 490.14 612.86 C 487.94 609.73 485.99 606.41 484.48 602.88 Z" fill="#9f9f9f" opacity="1.00" stroke="#9f9f9f" stroke-width="0.25"/>
<path d="M 562.98 631.81 C 565.18 635.38 566.61 639.44 566.64 643.69 C 564.75 641.93 562.80 640.20 561.37 638.04 C 561.54 635.88 562.35 633.85 562.98 631.81 Z" fill="#0d0d0d" opacity="1.00" stroke="#0d0d0d" stroke-width="0.25"/>
<path d="M 581.00 701.00 C 578.66 698.63 574.93 695.43 577.83 692.00 C 589.35 702.81 601.77 714.44 617.83 717.52 C 619.00 717.80 620.17 718.14 621.34 718.51 C 618.65 718.29 616.00 717.77 613.33 717.52 C 617.42 722.96 624.54 722.92 630.38 725.10 C 624.04 724.07 617.33 725.28 611.37 722.36 C 600.15 716.99 590.22 709.26 581.00 701.00 Z" fill="#0d0d0d" opacity="1.00" stroke="#0d0d0d" stroke-width="0.25"/>
</svg>